<?xml version="1.0" encoding="UTF-8" standalone="no"?>
<svg
   xmlns:dc="http://purl.org/dc/elements/1.1/"
   xmlns:cc="http://creativecommons.org/ns#"
   xmlns:rdf="http://www.w3.org/1999/02/22-rdf-syntax-ns#"
   xmlns:svg="http://www.w3.org/2000/svg"
   xmlns="http://www.w3.org/2000/svg"
   xmlns:xlink="http://www.w3.org/1999/xlink"
   xml:space="preserve"
   style="enable-background:new -1 218.6 760.1 165.4;"
   viewBox="-1 218.6 760.1 165.4"
   y="0px"
   x="0px"
   id="Layer_1"
   version="1.1"><metadata
     id="metadata5519"><rdf:RDF><cc:Work
         rdf:about=""><dc:format>image/svg+xml</dc:format><dc:type
           rdf:resource="http://purl.org/dc/dcmitype/StillImage" /><dc:title></dc:title></cc:Work></rdf:RDF></metadata><defs
     id="defs5517" /><style
     id="style5243"
     type="text/css">
	.st0{fill:#FFFFFF;}
	.st1{fill:#F5AC43;}
	.st2{fill:url(#XMLID_23_);}
	.st3{opacity:0.95;fill:url(#XMLID_24_);enable-background:new    ;}
	.st4{clip-path:url(#SVGID_2_);fill:url(#XMLID_25_);}
	.st5{clip-path:url(#SVGID_4_);fill:url(#XMLID_26_);}
	.st6{clip-path:url(#SVGID_6_);fill:url(#XMLID_27_);}
	.st7{clip-path:url(#SVGID_8_);fill:url(#XMLID_28_);}
	.st8{clip-path:url(#SVGID_10_);fill:url(#XMLID_29_);}
	.st9{clip-path:url(#SVGID_12_);fill:url(#XMLID_30_);}
	.st10{clip-path:url(#SVGID_14_);fill:url(#XMLID_31_);}
	.st11{opacity:0.8;fill:url(#XMLID_32_);enable-background:new    ;}
	.st12{fill:url(#XMLID_33_);}
	.st13{fill:url(#SVGID_15_);}
	.st14{fill:url(#SVGID_16_);}
	.st15{fill:url(#SVGID_17_);}
</style><g
     id="g5245"><g
       id="g5247"><g
         id="XMLID_16_"><path
           d="M201.5,253.1h28.3c4,0,7.3,0.5,10,1.7c2.8,1.2,5,2.7,6.7,4.5c1.7,1.8,3,4,3.8,6.5     c0.8,2.3,1.2,4.8,1.2,7.5c0,2.5-0.3,5-1.2,7.5s-2,4.7-3.8,6.5c-1.7,1.8-4,3.3-6.7,4.5c-2.8,1.2-6.2,1.7-10,1.7h-14.5v22.5h-13.8     V253.1z M215.3,282.6H226c1.5,0,3.2-0.2,4.5-0.3c1.5-0.2,2.8-0.7,3.8-1.3c1.2-0.7,2-1.7,2.7-2.8c0.7-1.2,1-2.8,1-4.8     c0-2-0.3-3.7-1-4.8c-0.7-1.2-1.5-2.2-2.7-2.8c-1.2-0.7-2.3-1.2-3.8-1.3c-1.5-0.2-3-0.3-4.5-0.3h-10.7V282.6z"
           class="st0"
           id="XMLID_22_" /><path
           d="M322.2,292.1c0,8.5-2.3,14.8-7.2,19c-4.8,4.2-11.3,6.2-19.7,6.2c-8.5,0-15.2-2-19.7-6.2     c-4.7-4.2-7-10.5-7-19v-39h13.8v39c0,1.7,0.2,3.3,0.5,5c0.3,1.7,0.8,3.2,1.8,4.3c1,1.3,2.2,2.3,3.8,3c1.7,0.8,3.8,1.2,6.7,1.2     c5,0,8.3-1.2,10.2-3.3c1.8-2.2,2.8-5.7,2.8-10.3v-38.8h13.8C322.2,253.1,322.2,292.1,322.2,292.1z"
           class="st0"
           id="XMLID_21_" /><path
           d="M344.7,253.1h19.5l14.7,43.1h0.2l13.8-43.1h19.5v62.8h-13v-44.6h-0.2l-15.3,44.5h-10.7     l-15.3-44h-0.3v44h-13L344.7,253.1L344.7,253.1z"
           class="st0"
           id="XMLID_20_" /><path
           d="M435,253.1h28.3c4,0,7.3,0.5,10,1.7c2.8,1.2,5,2.7,6.7,4.5s3,4,3.8,6.5     c0.8,2.3,1.2,4.8,1.2,7.5c0,2.5-0.3,5-1.2,7.5c-0.8,2.5-2,4.7-3.8,6.5c-1.7,1.8-4,3.3-6.7,4.5s-6.2,1.7-10,1.7h-14.5v22.5H435     C435,315.9,435,253.1,435,253.1z M448.8,282.6h10.7c1.7,0,3.2-0.2,4.5-0.3c1.5-0.2,2.8-0.7,3.8-1.3c1.2-0.7,2-1.7,2.7-2.8     c0.7-1.2,1-2.8,1-4.8c0-2-0.3-3.7-1-4.8c-0.7-1.2-1.5-2.2-2.7-2.8c-1.2-0.7-2.3-1.2-3.8-1.3s-3-0.3-4.5-0.3h-10.7     C448.8,263.9,448.8,282.6,448.8,282.6z"
           class="st0"
           id="XMLID_19_" /><path
           d="M503.3,253.1h13.8v62.8h-13.8V253.1z"
           class="st0"
           id="XMLID_18_" /><path
           d="M579.7,274.1c-0.2-1.5-0.8-3-1.7-4.3c-0.8-1.3-1.8-2.5-3-3.5c-1.2-1-2.7-1.8-4.2-2.3     s-3.2-0.8-4.8-0.8c-3.2,0-5.7,0.7-8,1.8c-2.2,1.2-4,2.8-5.3,4.8c-1.3,2-2.3,4.3-3,6.8c-0.7,2.5-1,5.2-1,8c0,2.7,0.3,5.2,1,7.7     c0.7,2.5,1.7,4.7,3,6.7c1.3,2,3.2,3.7,5.3,4.8c2.2,1.2,4.8,1.8,8,1.8c4.2,0,7.5-1.3,9.8-3.8c2.3-2.5,3.8-6,4.3-10.2h13.3     c-0.3,4-1.3,7.5-2.7,10.7c-1.5,3.2-3.3,5.8-5.8,8.2c-2.3,2.2-5.2,4-8.5,5.2c-3.2,1.2-6.8,1.8-10.7,1.8c-4.8,0-9.2-0.8-13-2.5     s-7-4-9.7-6.8c-2.7-3-4.7-6.3-6-10.3c-1.3-4-2.2-8.2-2.2-12.8c0-4.7,0.7-9,2.2-13c1.3-4,3.5-7.5,6-10.5s5.8-5.3,9.7-7     c3.8-1.7,8.2-2.5,13-2.5c3.5,0,6.7,0.5,9.8,1.5c3,1,5.8,2.5,8.3,4.3s4.5,4.3,6,7c1.5,2.8,2.5,6,3,9.7h-13.3V274.1z"
           class="st0"
           id="XMLID_17_" /></g><g
         id="XMLID_2_"><g
           id="XMLID_3_"><path
             d="M214.3,346.9c-0.3-0.5-0.7-0.8-1-1.3c-0.3-0.3-0.8-0.7-1.5-0.8c-0.5-0.2-1.2-0.3-1.8-0.3      c-1,0-2,0.2-2.7,0.7c-0.8,0.5-1.3,1-1.8,1.7c-0.5,0.7-0.8,1.5-1,2.5c-0.2,0.8-0.3,1.8-0.3,2.8s0.2,1.8,0.3,2.8      c0.2,0.8,0.7,1.7,1,2.5c0.5,0.7,1.2,1.3,1.8,1.7c0.7,0.3,1.7,0.7,2.7,0.7c0.8,0,1.5-0.2,2-0.3c0.7-0.3,1.2-0.7,1.5-1.2      c0.5-0.5,0.8-1,1-1.7c0.2-0.7,0.3-1.3,0.5-2h3.3c0,1.2-0.3,2.3-0.8,3.3c-0.5,1-1,1.8-1.8,2.5c-0.7,0.7-1.7,1.3-2.7,1.7      c-1,0.3-2.2,0.7-3.3,0.7c-1.5,0-2.8-0.3-4-0.8c-1.2-0.5-2.2-1.3-3-2.2c-0.8-1-1.5-2-1.8-3.3c-0.5-1.3-0.7-2.7-0.7-4      s0.2-2.7,0.7-4c0.5-1.3,1-2.3,1.8-3.3c0.8-1,1.8-1.7,3-2.3c1.2-0.5,2.5-0.8,4-0.8c1.2,0,2.2,0.2,3.2,0.5c1,0.3,1.8,0.8,2.7,1.3      c0.8,0.7,1.3,1.3,1.8,2.2c0.5,0.8,0.8,1.8,0.8,2.8h-3.5C214.8,347.9,214.7,347.4,214.3,346.9z"
             class="st0"
             id="XMLID_15_" /><path
             d="M247.5,342.4c1.2,0.5,2.2,1.3,3,2.3c0.8,1,1.5,2,1.8,3.3c0.5,1.3,0.7,2.7,0.7,4      c0,1.5-0.2,2.8-0.7,4c-0.5,1.3-1,2.3-1.8,3.3c-0.8,1-1.8,1.7-3,2.2c-1.2,0.5-2.5,0.8-4,0.8s-2.8-0.3-4-0.8      c-1.2-0.5-2.2-1.3-3-2.2c-0.8-1-1.5-2-1.8-3.3c-0.5-1.3-0.7-2.7-0.7-4s0.2-2.7,0.7-4c0.5-1.3,1-2.3,1.8-3.3c0.8-1,1.8-1.7,3-2.3      c1.2-0.5,2.5-0.8,4-0.8S246.3,341.9,247.5,342.4z M240.8,345c-0.8,0.5-1.3,1-1.8,1.7c-0.5,0.7-0.8,1.5-1,2.5      c-0.2,0.8-0.3,1.8-0.3,2.8s0.2,1.8,0.3,2.8c0.2,0.8,0.7,1.7,1,2.5c0.5,0.7,1.2,1.3,1.8,1.7c0.8,0.5,1.7,0.7,2.7,0.7      s2-0.2,2.7-0.7c0.8-0.5,1.3-1,1.8-1.7c0.5-0.7,0.8-1.5,1-2.5c0.2-0.8,0.3-1.8,0.3-2.8s-0.2-1.8-0.3-2.8c-0.2-0.8-0.7-1.7-1-2.5      c-0.5-0.7-1.2-1.3-1.8-1.7c-0.8-0.5-1.7-0.7-2.7-0.7S241.5,344.7,240.8,345z"
             class="st0"
             id="XMLID_14_" /><path
             d="M273.1,342l9,14.7l0,0V342h3.3v19.8h-3.7l-9-14.7h-0.2v14.7h-3.3V342H273.1z"
             class="st0"
             id="XMLID_13_" /><path
             d="M317.2,342v3h-6.3v16.8h-3.5V345h-6.3v-3H317.2z"
             class="st0"
             id="XMLID_12_" /><path
             d="M342.4,342c2.2,0,3.8,0.5,5,1.5c1.2,1,1.7,2.3,1.7,4c0,1-0.2,1.7-0.5,2.3      c-0.3,0.7-0.7,1.2-1,1.5c-0.3,0.3-0.7,0.7-1.2,0.8c-0.3,0.2-0.7,0.3-0.8,0.3l0,0c0.3,0,0.7,0.2,1,0.3c0.3,0.2,0.7,0.3,1,0.7      c0.3,0.3,0.5,0.7,0.7,1.3c0.2,0.5,0.3,1.2,0.3,2c0,1.2,0.2,2.2,0.3,3.2c0.2,1,0.5,1.7,0.8,2h-3.8c-0.3-0.5-0.3-0.8-0.5-1.5      c0-0.5,0-1,0-1.5c0-0.8,0-1.7-0.2-2.3s-0.3-1.2-0.7-1.7c-0.3-0.5-0.7-0.8-1.2-1c-0.5-0.2-1.2-0.3-2-0.3h-5.2v8.2h-3.5V342H342.4      L342.4,342z M342.1,351.2c1.2,0,2-0.3,2.5-0.8s0.8-1.3,0.8-2.3c0-0.7-0.2-1.2-0.3-1.5c-0.2-0.3-0.5-0.7-0.8-1      c-0.3-0.2-0.7-0.3-1.2-0.5c-0.5,0-0.8-0.2-1.3-0.2h-5.7v6.2L342.1,351.2C342.1,351,342.1,351.2,342.1,351.2z"
             class="st0"
             id="XMLID_11_" /><path
             d="M378.4,342.4c1.2,0.5,2.2,1.3,3,2.3c0.8,1,1.5,2,1.8,3.3c0.5,1.3,0.7,2.7,0.7,4      c0,1.5-0.2,2.8-0.7,4c-0.5,1.3-1,2.3-1.8,3.3c-0.8,1-1.8,1.7-3,2.2c-1.2,0.5-2.5,0.8-4,0.8s-2.8-0.3-4-0.8s-2.2-1.3-3-2.2      c-0.8-1-1.5-2-1.8-3.3c-0.5-1.3-0.7-2.7-0.7-4s0.2-2.7,0.7-4s1-2.3,1.8-3.3c0.8-1,1.8-1.7,3-2.3c1.2-0.5,2.5-0.8,4-0.8      S377,341.9,378.4,342.4z M371.5,345c-0.8,0.5-1.3,1-1.8,1.7c-0.5,0.7-0.8,1.5-1,2.5c-0.2,0.8-0.3,1.8-0.3,2.8s0.2,1.8,0.3,2.8      c0.2,0.8,0.7,1.7,1,2.5c0.5,0.7,1.2,1.3,1.8,1.7c0.8,0.5,1.7,0.7,2.7,0.7c1,0,2-0.2,2.7-0.7c0.7-0.5,1.3-1,1.8-1.7      s0.8-1.5,1-2.5c0.2-0.8,0.3-1.8,0.3-2.8s-0.2-1.8-0.3-2.8c-0.2-0.8-0.7-1.7-1-2.5c-0.5-0.7-1.2-1.3-1.8-1.7      c-0.8-0.5-1.7-0.7-2.7-0.7C373.2,344.4,372.4,344.7,371.5,345z"
             class="st0"
             id="XMLID_10_" /><path
             d="M403.8,342v16.8H414v3h-13.7V342H403.8L403.8,342z"
             class="st0"
             id="XMLID_9_" /><path
             d="M459.5,342c1.3,0,2.5,0.2,3.5,0.7c0.8,0.3,1.5,1,2,1.5c0.5,0.7,0.8,1.3,1,2      c0.2,0.7,0.3,1.3,0.3,2c0,0.7-0.2,1.3-0.3,2s-0.5,1.3-1,2c-0.5,0.7-1.2,1.2-2,1.5c-0.8,0.3-2,0.7-3.5,0.7h-5.3v7.7h-3.3v-19.8      L459.5,342L459.5,342z M459.3,351.5c0.3,0,0.8,0,1.2-0.2c0.3-0.2,0.8-0.3,1.2-0.5c0.3-0.3,0.7-0.7,0.8-1c0.2-0.5,0.3-1,0.3-1.5      c0-0.7-0.2-1.2-0.3-1.7c-0.2-0.5-0.5-0.8-0.8-1c-0.3-0.3-0.7-0.5-1.2-0.5c-0.3-0.2-0.8-0.2-1.3-0.2H454v6.5H459.3L459.3,351.5z"
             class="st0"
             id="XMLID_8_" /><path
             d="M489.6,342l7.7,19.8h-3.7l-1.8-5.3h-8l-1.8,5.3h-3.7L486,342H489.6z M490.8,354l-3-8.5h-0.2      l-3,8.5H490.8z"
             class="st0"
             id="XMLID_7_" /><path
             d="M516.1,342l9,14.7l0,0V342h3.3v19.8h-3.7l-9-14.7l0,0v14.7h-3.3V342H516.1L516.1,342z"
             class="st0"
             id="XMLID_6_" /><path
             d="M560.4,342v3h-10.8v5.2h10v2.8h-10v5.8h11v3h-14.5V342H560.4L560.4,342z"
             class="st0"
             id="XMLID_5_" /><path
             d="M580.4,342v16.8h10.2v3h-13.7V342H580.4L580.4,342z"
             class="st0"
             id="XMLID_4_" /></g></g><g
         id="g5270"><path
           id="path5272"
           d="M629.5,253.8h115.7c6.5,0,12.2,5.5,12.2,12.2v28.1c0,6.5-5.5,12.2-12.2,12.2H629.5     c-6.5,0-12.2-5.5-12.2-12.2v-28.1C617.7,259.4,623,253.8,629.5,253.8z"
           class="st1" /><g
           id="g5274"><path
             id="path5276"
             d="M657,279.9c0,4.3-1,7.8-3.7,9.8c-2.7,2.3-5.8,3.7-10.8,3.7H635v-26.5h8.2c4.3,0,7.8,1,9.8,3.3      C655.7,272.7,657,275.7,657,279.9z M651.2,279.9c0-5.5-2.7-8.5-7.5-8.5h-3v17.3h2.3C648.5,288.7,651.2,285.9,651.2,279.9z"
             class="st0" /><path
             id="path5278"
             d="M678,293.4h-15.3v-26.5H678v4.5h-9.8v5.5h8.8v4.5h-8.8v6.8h9.8V293.4z"
             class="st0" /><path
             id="path5280"
             d="M694.6,293.4l-6.2-21h-0.3c0.3,4.3,0.3,7.2,0.3,8.5v12.2h-5.2v-26.5h7.8l6.2,20.3l0,0l6.5-20.3h7.8v26.5      h-5.2v-12.5c0-0.7,0-1,0-2s0-3,0.3-6.2h-0.3l-6.8,21C699.5,293.4,694.6,293.4,694.6,293.4z"
             class="st0" /><path
             id="path5282"
             d="M742.3,279.9c0,4.3-1,7.8-3.3,9.8c-2.3,2.3-5.5,3.3-9.5,3.3s-7.2-1-9.5-3.3s-3.3-5.5-3.3-10.2      c0-4.3,1-7.8,3.3-9.8c2.3-2.3,5.5-3.3,9.5-3.3s7.2,1,9.5,3.3C741.3,272.4,742.3,275.4,742.3,279.9z M723.1,279.9      c0,3,0.7,5.2,1.7,6.5c1,1.3,3,2.3,5.2,2.3c4.5,0,6.8-3,6.8-8.8s-2.3-8.8-6.5-8.8c-2.3,0-4,1-5.2,2.3      C723.4,275.1,723.1,277.4,723.1,279.9z"
             class="st0" /></g></g></g><g
       id="g5284"><radialGradient
         gradientUnits="userSpaceOnUse"
         gradientTransform="matrix(1 0 0 -1 0 144.25)"
         r="43.6589"
         cy="-184.2274"
         cx="101.9"
         id="XMLID_23_"><stop
           id="stop5287"
           style="stop-color:#364655"
           offset="0" /><stop
           id="stop5289"
           style="stop-color:#363C49"
           offset="0.5271" /><stop
           id="stop5291"
           style="stop-color:#2D3243"
           offset="1" /></radialGradient><circle
         r="43.6"
         cy="328.5"
         cx="101.9"
         class="st2"
         id="XMLID_88_" /><radialGradient
         gradientUnits="userSpaceOnUse"
         gradientTransform="matrix(1.0889 0 0 -1.2154 -6.0822 125.7383)"
         r="9.4949"
         cy="-158.2711"
         cx="99.3536"
         id="XMLID_24_"><stop
           id="stop5295"
           style="stop-color:#22D7FF"
           offset="0" /><stop
           id="stop5297"
           style="stop-color:#22D7FF;stop-opacity:0"
           offset="0.9803" /></radialGradient><path
         d="M102,306.1c5.5,0,10.1,5.3,10.1,11.9s-4.6,11.9-10.1,11.9s-10-5.4-10-11.9    C92,311.4,96.6,306.1,102,306.1z"
         class="st3"
         id="XMLID_86_" /><g
         id="XMLID_42_"><g
           id="g5301"><g
             id="g5303"><g
               id="g5305"><g
                 id="g5307"><g
                   id="g5309"><defs
                     id="defs5311"><circle
                       r="66.2"
                       cy="316"
                       cx="101.9"
                       id="SVGID_1_" /></defs><clipPath
                     id="SVGID_2_"><use
                       id="use5315"
                       style="overflow:visible;"
                       xlink:href="#SVGID_1_" /></clipPath><linearGradient
                     gradientTransform="matrix(1 0 0 -1 0 144.25)"
                     y2="-150.2086"
                     x2="79.5981"
                     y1="-238.1469"
                     x1="68.8007"
                     gradientUnits="userSpaceOnUse"
                     id="XMLID_25_"><stop
                       id="stop5318"
                       style="stop-color:#A3580C"
                       offset="0.1084" /><stop
                       id="stop5320"
                       style="stop-color:#C36403"
                       offset="0.2069" /><stop
                       id="stop5322"
                       style="stop-color:#FBD45B"
                       offset="0.7783" /></linearGradient><path
                     clip-path="url(#SVGID_2_)"
                     d="M37.4,289.3c0,0,36.9,36.7,42.2,42.1c5.2,5,10.4,11,21.5,11.3          c9.9,0.2,17.5-6.4,17.5-6.4l-46.7,46.5C71.9,382.8,17.7,364.2,37.4,289.3z"
                     class="st4"
                     id="XMLID_81_" /></g></g></g></g></g><g
           id="g5325"><g
             id="g5327"><g
               id="g5329"><g
                 id="g5331"><g
                   id="g5333"><defs
                     id="defs5335"><circle
                       r="66.2"
                       cy="316"
                       cx="101.9"
                       id="SVGID_3_" /></defs><clipPath
                     id="SVGID_4_"><use
                       id="use5339"
                       style="overflow:visible;"
                       xlink:href="#SVGID_3_" /></clipPath><linearGradient
                     gradientTransform="matrix(1 0 0 -1 0 144.25)"
                     y2="-171.1152"
                     x2="121.3165"
                     y1="-243.2299"
                     x1="120.0577"
                     gradientUnits="userSpaceOnUse"
                     id="XMLID_26_"><stop
                       id="stop5342"
                       style="stop-color:#BB5D06"
                       offset="9.852216e-002" /><stop
                       id="stop5344"
                       style="stop-color:#EFBA47"
                       offset="0.6552" /></linearGradient><path
                     clip-path="url(#SVGID_4_)"
                     d="M76.7,377.7l62.5-62l25.2,25.2C164.4,340.9,152.2,412.9,76.7,377.7z"
                     class="st5"
                     id="XMLID_76_" /></g></g></g></g></g><g
           id="g5347"><g
             id="g5349"><g
               id="g5351"><g
                 id="g5353"><g
                   id="g5355"><defs
                     id="defs5357"><circle
                       r="66.2"
                       cy="316"
                       cx="101.9"
                       id="SVGID_5_" /></defs><clipPath
                     id="SVGID_6_"><use
                       id="use5361"
                       style="overflow:visible;"
                       xlink:href="#SVGID_5_" /></clipPath><linearGradient
                     gradientTransform="matrix(1 0 0 -1 0 144.25)"
                     y2="-171.9465"
                     x2="140.8907"
                     y1="-246.9329"
                     x1="107.5043"
                     gradientUnits="userSpaceOnUse"
                     id="XMLID_27_"><stop
                       id="stop5364"
                       style="stop-color:#EFBA47;stop-opacity:0"
                       offset="0.6256" /><stop
                       id="stop5366"
                       style="stop-color:#A86113"
                       offset="0.931" /></linearGradient><path
                     clip-path="url(#SVGID_6_)"
                     d="M77,377.6l62.5-62l25.2,25.2C164.7,340.7,152.5,412.8,77,377.6z"
                     class="st6"
                     id="XMLID_71_" /></g></g></g></g></g><g
           id="g5369"><g
             id="g5371"><g
               id="g5373"><g
                 id="g5375"><g
                   id="g5377"><defs
                     id="defs5379"><circle
                       r="66.2"
                       cy="316"
                       cx="101.9"
                       id="SVGID_7_" /></defs><clipPath
                     id="SVGID_8_"><use
                       id="use5383"
                       style="overflow:visible;"
                       xlink:href="#SVGID_7_" /></clipPath><linearGradient
                     gradientTransform="matrix(1 0 0 -1 0 144.25)"
                     y2="-203.1887"
                     x2="155.1671"
                     y1="-116.6762"
                     x1="109.1676"
                     gradientUnits="userSpaceOnUse"
                     id="XMLID_28_"><stop
                       id="stop5386"
                       style="stop-color:#ECB03F"
                       offset="0" /><stop
                       id="stop5388"
                       style="stop-color:#F9CF57"
                       offset="0.266" /><stop
                       id="stop5390"
                       style="stop-color:#ECB03F"
                       offset="0.5172" /><stop
                       id="stop5392"
                       style="stop-color:#C66907"
                       offset="0.7882" /><stop
                       id="stop5394"
                       style="stop-color:#A3580C"
                       offset="0.9261" /></linearGradient><path
                     clip-path="url(#SVGID_8_)"
                     d="M165.4,341.9c0,0-36.9-35.5-42.1-40.9c-4.7-5-9.9-11-21.9-11.4          c-9.9-0.3-17.5,6.4-17.5,6.4l46.8-46.5C130.5,249.5,185.1,267.1,165.4,341.9z"
                     class="st7"
                     id="XMLID_66_" /></g></g></g></g></g><g
           id="g5397"><g
             id="g5399"><g
               id="g5401"><g
                 id="g5403"><g
                   id="g5405"><defs
                     id="defs5407"><circle
                       r="66.2"
                       cy="316"
                       cx="101.9"
                       id="SVGID_9_" /></defs><clipPath
                     id="SVGID_10_"><use
                       id="use5411"
                       style="overflow:visible;"
                       xlink:href="#SVGID_9_" /></clipPath><linearGradient
                     gradientTransform="matrix(1 0 0 -1 0 144.25)"
                     y2="-98.1008"
                     x2="91.088"
                     y1="-173.0995"
                     x1="69.5825"
                     gradientUnits="userSpaceOnUse"
                     id="XMLID_29_"><stop
                       id="stop5414"
                       style="stop-color:#A1550B"
                       offset="7.389162e-002" /><stop
                       id="stop5416"
                       style="stop-color:#E6A235"
                       offset="0.5025" /><stop
                       id="stop5418"
                       style="stop-color:#F4C24C"
                       offset="0.8522" /><stop
                       id="stop5420"
                       style="stop-color:#F9CF57"
                       offset="0.9557" /></linearGradient><path
                     clip-path="url(#SVGID_10_)"
                     d="M126.3,254.1l-62.2,61.7l-25.2-25.2C38.9,290.9,50.8,218.9,126.3,254.1z"
                     class="st8"
                     id="XMLID_51_" /></g></g></g></g></g><g
           id="g5423"><g
             id="g5425"><g
               id="g5427"><g
                 id="g5429"><g
                   id="g5431"><defs
                     id="defs5433"><circle
                       r="66.2"
                       cy="316"
                       cx="101.9"
                       id="SVGID_11_" /></defs><clipPath
                     id="SVGID_12_"><use
                       id="use5437"
                       style="overflow:visible;"
                       xlink:href="#SVGID_11_" /></clipPath><linearGradient
                     gradientTransform="matrix(1 0 0 -1 0 144.25)"
                     y2="-124.2875"
                     x2="101.6433"
                     y1="-175.224"
                     x1="180.0788"
                     gradientUnits="userSpaceOnUse"
                     id="XMLID_30_"><stop
                       id="stop5440"
                       style="stop-color:#EFBA47;stop-opacity:0"
                       offset="0.803" /><stop
                       id="stop5442"
                       style="stop-color:#A86113"
                       offset="0.9704" /></linearGradient><path
                     clip-path="url(#SVGID_12_)"
                     d="M165.4,342.1c0,0-36.9-35.5-42.1-40.9c-4.7-5-9.9-11-21.9-11.4          c-9.9-0.3-17.5,6.4-17.5,6.4l46.8-46.5C130.5,249.7,185.1,267.2,165.4,342.1z"
                     class="st9"
                     id="XMLID_48_" /></g></g></g></g></g><g
           id="g5445"><g
             id="g5447"><g
               id="g5449"><g
                 id="g5451"><g
                   id="g5453"><defs
                     id="defs5455"><circle
                       r="66.2"
                       cy="316"
                       cx="101.9"
                       id="SVGID_13_" /></defs><clipPath
                     id="SVGID_14_"><use
                       id="use5459"
                       style="overflow:visible;"
                       xlink:href="#SVGID_13_" /></clipPath><linearGradient
                     gradientTransform="matrix(1 0 0 -1 0 144.25)"
                     y2="-218.4356"
                     x2="96.6088"
                     y1="-159.0333"
                     x1="25.8156"
                     gradientUnits="userSpaceOnUse"
                     id="XMLID_31_"><stop
                       id="stop5462"
                       style="stop-color:#D2811E;stop-opacity:0"
                       offset="0.6256" /><stop
                       id="stop5464"
                       style="stop-color:#A86113"
                       offset="0.9261" /></linearGradient><path
                     clip-path="url(#SVGID_14_)"
                     d="M37.4,289.5c0,0,36.9,36.7,42.2,42.1c5.2,5,10.4,11,21.5,11.3          c9.9,0.2,17.5-6.4,17.5-6.4L71.8,383C71.9,382.9,17.7,364.3,37.4,289.5z"
                     class="st10"
                     id="XMLID_45_" /></g></g></g></g></g></g><radialGradient
         gradientUnits="userSpaceOnUse"
         gradientTransform="matrix(1 0 0 -1.0907 0 136.1721)"
         r="8.3607"
         cy="-165.9055"
         cx="101.9793"
         id="XMLID_32_"><stop
           id="stop5468"
           style="stop-color:#69C9CA"
           offset="0.3251" /><stop
           id="stop5470"
           style="stop-color:#0BFBFC;stop-opacity:2.805595e-002"
           offset="0.9261" /><stop
           id="stop5472"
           style="stop-color:#05FEFF;stop-opacity:0"
           offset="1" /></radialGradient><path
         d="M102,307.6c4.6,0,8.1,4.1,8.1,9.3c0,5.2-3.7,9.3-8.1,9.3c-4.6,0-8.1-4.1-8.1-9.3    C93.8,311.9,97.5,307.6,102,307.6z"
         class="st11"
         id="XMLID_40_" /><radialGradient
         gradientUnits="userSpaceOnUse"
         gradientTransform="matrix(1 0 0 -1 0 144.25)"
         r="7.1744"
         cy="-172.2216"
         cx="101.9173"
         id="XMLID_33_"><stop
           id="stop5476"
           style="stop-color:#69C9CA"
           offset="0.6847" /><stop
           id="stop5478"
           style="stop-color:#4AD9DA;stop-opacity:0.6995"
           offset="0.7602" /><stop
           id="stop5480"
           style="stop-color:#05FEFF;stop-opacity:0"
           offset="0.936" /></radialGradient><path
         d="M101.9,309c3.8,0,7,3.4,7,7.3c0,4.1-3.2,7.3-7,7.3s-7-3.4-7-7.3S98.1,309,101.9,309z"
         class="st12"
         id="XMLID_38_" /><path
         d="M101.9,311.1c2.7,0,4.9,2.3,4.9,4.9c0,2.7-2.3,4.9-4.9,4.9c-2.7,0-4.9-2.3-4.9-4.9    C97,313.3,99.1,311.1,101.9,311.1z"
         class="st0"
         id="XMLID_36_" /></g><g
       id="g5484"><linearGradient
         gradientTransform="matrix(1 0 0 1 0 5.2)"
         y2="278.8743"
         x2="84.7979"
         y1="219.6075"
         x1="76.4686"
         gradientUnits="userSpaceOnUse"
         id="SVGID_15_"><stop
           id="stop5487"
           style="stop-color:#E83710"
           offset="0" /><stop
           id="stop5489"
           style="stop-color:#A91E31"
           offset="0.5911" /><stop
           id="stop5491"
           style="stop-color:#A41C31"
           offset="0.654" /><stop
           id="stop5493"
           style="stop-color:#961830"
           offset="0.7278" /><stop
           id="stop5495"
           style="stop-color:#7E102E"
           offset="0.8066" /><stop
           id="stop5497"
           style="stop-color:#61072C"
           offset="0.8818" /></linearGradient><path
         id="path5499"
         d="M160.2,273.5c-20.6-87.3-125.3-36.9-138.3-28.7C12.2,250.9,4,256.3,4,256.3s41.1-10.3,39.1,17.5L160.2,273.5    L160.2,273.5z"
         class="st13" /><linearGradient
         gradientTransform="matrix(1 0 0 1 0 5.2)"
         y2="289.7129"
         x2="101.1"
         y1="261.9871"
         x1="101.1"
         gradientUnits="userSpaceOnUse"
         id="SVGID_16_"><stop
           id="stop5502"
           style="stop-color:#FFFFFF"
           offset="0" /><stop
           id="stop5504"
           style="stop-color:#DBDBDB"
           offset="1" /></linearGradient><path
         id="path5506"
         d="M157.7,294.3c0,0-29.7-4-56.7-4s-55.1,4-55.1,4c-8,1-8.4,1.8-8.5-8.5l-0.7-6.9c0-4.7,3.8-8.5,8.5-8.5    c0,0,21.5-3.3,52-3.3s59.8,3.3,59.8,3.3c4.7,0,8.5,3.8,8.5,8.5l-0.3,11.5C165.2,295.1,165.3,295.5,157.7,294.3z"
         class="st14" /><linearGradient
         gradientTransform="matrix(1 0 0 1 0 5.2)"
         y2="246.6774"
         x2="24.1643"
         y1="246.6774"
         x1="0.7643"
         gradientUnits="userSpaceOnUse"
         id="SVGID_17_"><stop
           id="stop5509"
           style="stop-color:#FFFFFF"
           offset="0" /><stop
           id="stop5511"
           style="stop-color:#DBDBDB"
           offset="1" /></linearGradient><circle
         id="circle5513"
         r="11.7"
         cy="251.9"
         cx="12.4"
         class="st15" /></g></g></svg>