<?xml version="1.0" encoding="UTF-8" standalone="no"?>
<svg
   xmlns:dc="http://purl.org/dc/elements/1.1/"
   xmlns:cc="http://creativecommons.org/ns#"
   xmlns:rdf="http://www.w3.org/1999/02/22-rdf-syntax-ns#"
   xmlns:svg="http://www.w3.org/2000/svg"
   xmlns="http://www.w3.org/2000/svg"
   xmlns:xlink="http://www.w3.org/1999/xlink"
   height="86.800003"
   width="435.80002"
   xml:space="preserve"
   viewBox="-251 240.1 435.80002 86.800003"
   y="0px"
   x="0px"
   id="Layer_1"
   version="1.1"><metadata
     id="metadata4876"><rdf:RDF><cc:Work
         rdf:about=""><dc:format>image/svg+xml</dc:format><dc:type
           rdf:resource="http://purl.org/dc/dcmitype/StillImage" /><dc:title></dc:title></cc:Work></rdf:RDF></metadata><defs
     id="defs4874" /><style
     id="style4651"
     type="text/css">
	.st0{fill:#FFFFFF;}
	.st1{fill:url(#XMLID_3_);}
	.st2{opacity:0.95;fill:url(#XMLID_4_);enable-background:new    ;}
	.st3{clip-path:url(#SVGID_2_);fill:url(#XMLID_5_);}
	.st4{clip-path:url(#SVGID_4_);fill:url(#XMLID_6_);}
	.st5{clip-path:url(#SVGID_6_);fill:url(#XMLID_7_);}
	.st6{clip-path:url(#SVGID_8_);fill:url(#XMLID_8_);}
	.st7{clip-path:url(#SVGID_10_);fill:url(#XMLID_9_);}
	.st8{clip-path:url(#SVGID_12_);fill:url(#XMLID_10_);}
	.st9{clip-path:url(#SVGID_14_);fill:url(#XMLID_11_);}
	.st10{opacity:0.8;fill:url(#XMLID_12_);enable-background:new    ;}
	.st11{fill:url(#XMLID_13_);}
	.st12{fill:#F5AC43;}
</style><g
     transform="translate(-4.2999954,-3.0999985)"
     id="XMLID_52_"><path
       style="fill:#ffffff"
       d="m -144.7,254.1 17,0 c 2.4,0 4.4,0.3 6,1 1.7,0.7 3,1.6 4,2.7 1,1.1 1.8,2.4 2.3,3.9 0.5,1.4 0.7,2.9 0.7,4.5 0,1.5 -0.2,3 -0.7,4.5 -0.5,1.5 -1.2,2.8 -2.3,3.9 -1,1.1 -2.4,2 -4,2.7 -1.7,0.7 -3.7,1 -6,1 l -8.7,0 0,13.5 -8.3,0 0,-37.7 z m 8.3,17.7 6.4,0 c 0.9,0 1.9,-0.1 2.7,-0.2 0.9,-0.1 1.7,-0.4 2.3,-0.8 0.7,-0.4 1.2,-1 1.6,-1.7 0.4,-0.7 0.6,-1.7 0.6,-2.9 0,-1.2 -0.2,-2.2 -0.6,-2.9 -0.4,-0.7 -0.9,-1.3 -1.6,-1.7 -0.7,-0.4 -1.4,-0.7 -2.3,-0.8 -0.9,-0.1 -1.8,-0.2 -2.7,-0.2 l -6.4,0 0,11.2 z"
       class="st0"
       id="XMLID_53_" /><path
       style="fill:#ffffff"
       d="m -72.2,277.5 c 0,5.1 -1.4,8.9 -4.3,11.4 -2.9,2.5 -6.8,3.7 -11.8,3.7 -5.1,0 -9.1,-1.2 -11.8,-3.7 -2.8,-2.5 -4.2,-6.3 -4.2,-11.4 l 0,-23.4 8.3,0 0,23.4 c 0,1 0.1,2 0.3,3 0.2,1 0.5,1.9 1.1,2.6 0.6,0.8 1.3,1.4 2.3,1.8 1,0.5 2.3,0.7 4,0.7 3,0 5,-0.7 6.1,-2 1.1,-1.3 1.7,-3.4 1.7,-6.2 l 0,-23.3 8.3,0 c 0,0 0,23.4 0,23.4 z"
       class="st0"
       id="XMLID_56_" /><path
       style="fill:#ffffff"
       d="m -58.7,254.1 11.7,0 8.8,25.9 0.1,0 8.3,-25.9 11.7,0 0,37.7 -7.8,0 0,-26.8 -0.1,0 -9.2,26.7 -6.4,0 -9.2,-26.4 -0.2,0 0,26.4 -7.8,0 0.1,-37.6 0,0 z"
       class="st0"
       id="XMLID_58_" /><path
       style="fill:#ffffff"
       d="m -4.5,254.1 17,0 c 2.4,0 4.4,0.3 6,1 1.7,0.7 3,1.6 4,2.7 1,1.1 1.8,2.4 2.3,3.9 0.5,1.4 0.7,2.9 0.7,4.5 0,1.5 -0.2,3 -0.7,4.5 -0.5,1.5 -1.2,2.8 -2.3,3.9 -1,1.1 -2.4,2 -4,2.7 -1.6,0.7 -3.7,1 -6,1 l -8.7,0 0,13.5 -8.3,0 c 0,0 0,-37.7 0,-37.7 z m 8.3,17.7 6.4,0 c 1,0 1.9,-0.1 2.7,-0.2 0.9,-0.1 1.7,-0.4 2.3,-0.8 0.7,-0.4 1.2,-1 1.6,-1.7 0.4,-0.7 0.6,-1.7 0.6,-2.9 0,-1.2 -0.2,-2.2 -0.6,-2.9 -0.4,-0.7 -0.9,-1.3 -1.6,-1.7 -0.7,-0.4 -1.4,-0.7 -2.3,-0.8 -0.9,-0.1 -1.8,-0.2 -2.7,-0.2 l -6.4,0 c 0,0 0,11.2 0,11.2 z"
       class="st0"
       id="XMLID_60_" /><path
       style="fill:#ffffff"
       d="m 36.5,254.1 8.3,0 0,37.7 -8.3,0 0,-37.7 z"
       class="st0"
       id="XMLID_64_" /><path
       style="fill:#ffffff"
       d="m 82.4,266.7 c -0.1,-0.9 -0.5,-1.8 -1,-2.6 -0.5,-0.8 -1.1,-1.5 -1.8,-2.1 -0.7,-0.6 -1.6,-1.1 -2.5,-1.4 -0.9,-0.3 -1.9,-0.5 -2.9,-0.5 -1.9,0 -3.4,0.4 -4.8,1.1 -1.3,0.7 -2.4,1.7 -3.2,2.9 -0.8,1.2 -1.4,2.6 -1.8,4.1 -0.4,1.5 -0.6,3.1 -0.6,4.8 0,1.6 0.2,3.1 0.6,4.6 0.4,1.5 1,2.8 1.8,4 0.8,1.2 1.9,2.2 3.2,2.9 1.3,0.7 2.9,1.1 4.8,1.1 2.5,0 4.5,-0.8 5.9,-2.3 1.4,-1.5 2.3,-3.6 2.6,-6.1 l 8,0 c -0.2,2.4 -0.8,4.5 -1.6,6.4 -0.9,1.9 -2,3.5 -3.5,4.9 -1.4,1.3 -3.1,2.4 -5.1,3.1 -1.9,0.7 -4.1,1.1 -6.4,1.1 -2.9,0 -5.5,-0.5 -7.8,-1.5 -2.3,-1 -4.2,-2.4 -5.8,-4.1 -1.6,-1.8 -2.8,-3.8 -3.6,-6.2 -0.8,-2.4 -1.3,-4.9 -1.3,-7.7 0,-2.8 0.4,-5.4 1.3,-7.8 0.8,-2.4 2.1,-4.5 3.6,-6.3 1.5,-1.8 3.5,-3.2 5.8,-4.2 2.3,-1 4.9,-1.5 7.8,-1.5 2.1,0 4,0.3 5.9,0.9 1.8,0.6 3.5,1.5 5,2.6 1.5,1.1 2.7,2.6 3.6,4.2 0.9,1.7 1.5,3.6 1.8,5.8 l -8,0 c 0,0 0,-0.2 0,-0.2 z"
       class="st0"
       id="XMLID_68_" /></g><g
     transform="translate(-4.2999954,-3.0999985)"
     id="XMLID_1_"><g
       id="XMLID_309_"><path
         style="fill:#ffffff"
         d="m -137,310.4 c -0.2,-0.3 -0.4,-0.5 -0.6,-0.8 -0.2,-0.2 -0.5,-0.4 -0.9,-0.5 -0.3,-0.1 -0.7,-0.2 -1.1,-0.2 -0.6,0 -1.2,0.1 -1.6,0.4 -0.5,0.3 -0.8,0.6 -1.1,1 -0.3,0.4 -0.5,0.9 -0.6,1.5 -0.1,0.5 -0.2,1.1 -0.2,1.7 0,0.6 0.1,1.1 0.2,1.7 0.1,0.5 0.4,1 0.6,1.5 0.3,0.4 0.7,0.8 1.1,1 0.4,0.2 1,0.4 1.6,0.4 0.5,0 0.9,-0.1 1.2,-0.2 0.4,-0.2 0.7,-0.4 0.9,-0.7 0.3,-0.3 0.5,-0.6 0.6,-1 0.1,-0.4 0.2,-0.8 0.3,-1.2 l 2,0 c 0,0.7 -0.2,1.4 -0.5,2 -0.3,0.6 -0.6,1.1 -1.1,1.5 -0.4,0.4 -1,0.8 -1.6,1 -0.6,0.2 -1.3,0.4 -2,0.4 -0.9,0 -1.7,-0.2 -2.4,-0.5 -0.7,-0.3 -1.3,-0.8 -1.8,-1.3 -0.5,-0.6 -0.9,-1.2 -1.1,-2 -0.3,-0.8 -0.4,-1.6 -0.4,-2.4 0,-0.8 0.1,-1.6 0.4,-2.4 0.3,-0.8 0.6,-1.4 1.1,-2 0.5,-0.6 1.1,-1 1.8,-1.4 0.7,-0.3 1.5,-0.5 2.4,-0.5 0.7,0 1.3,0.1 1.9,0.3 0.6,0.2 1.1,0.5 1.6,0.8 0.5,0.4 0.8,0.8 1.1,1.3 0.3,0.5 0.5,1.1 0.5,1.7 l -2.1,0 c 0.1,-0.5 0,-0.8 -0.2,-1.1 z"
         class="st0"
         id="XMLID_337_" /><path
         style="fill:#ffffff"
         d="m -117.1,307.7 c 0.7,0.3 1.3,0.8 1.8,1.4 0.5,0.6 0.9,1.2 1.1,2 0.3,0.8 0.4,1.6 0.4,2.4 0,0.9 -0.1,1.7 -0.4,2.4 -0.3,0.8 -0.6,1.4 -1.1,2 -0.5,0.6 -1.1,1 -1.8,1.3 -0.7,0.3 -1.5,0.5 -2.4,0.5 -0.9,0 -1.7,-0.2 -2.4,-0.5 -0.7,-0.3 -1.3,-0.8 -1.8,-1.3 -0.5,-0.6 -0.9,-1.2 -1.1,-2 -0.3,-0.8 -0.4,-1.6 -0.4,-2.4 0,-0.8 0.1,-1.6 0.4,-2.4 0.3,-0.8 0.6,-1.4 1.1,-2 0.5,-0.6 1.1,-1 1.8,-1.4 0.7,-0.3 1.5,-0.5 2.4,-0.5 0.9,0 1.7,0.2 2.4,0.5 z m -4,1.6 c -0.5,0.3 -0.8,0.6 -1.1,1 -0.3,0.4 -0.5,0.9 -0.6,1.5 -0.1,0.5 -0.2,1.1 -0.2,1.7 0,0.6 0.1,1.1 0.2,1.7 0.1,0.5 0.4,1 0.6,1.5 0.3,0.4 0.7,0.8 1.1,1 0.5,0.3 1,0.4 1.6,0.4 0.6,0 1.2,-0.1 1.6,-0.4 0.5,-0.3 0.8,-0.6 1.1,-1 0.3,-0.4 0.5,-0.9 0.6,-1.5 0.1,-0.5 0.2,-1.1 0.2,-1.7 0,-0.6 -0.1,-1.1 -0.2,-1.7 -0.1,-0.5 -0.4,-1 -0.6,-1.5 -0.3,-0.4 -0.7,-0.8 -1.1,-1 -0.5,-0.3 -1,-0.4 -1.6,-0.4 -0.6,0 -1.2,0.2 -1.6,0.4 z"
         class="st0"
         id="XMLID_334_" /><path
         style="fill:#ffffff"
         d="m -101.7,307.5 5.4,8.8 0,0 0,-8.8 2,0 0,11.9 -2.2,0 -5.4,-8.8 -0.1,0 0,8.8 -2,0 0,-11.9 2.3,0 z"
         class="st0"
         id="XMLID_332_" /><path
         style="fill:#ffffff"
         d="m -75.2,307.5 0,1.8 -3.8,0 0,10.1 -2.1,0 0,-10.1 -3.8,0 0,-1.8 9.7,0 z"
         class="st0"
         id="XMLID_330_" /><path
         style="fill:#ffffff"
         d="m -60.1,307.5 c 1.3,0 2.3,0.3 3,0.9 0.7,0.6 1,1.4 1,2.4 0,0.6 -0.1,1 -0.3,1.4 -0.2,0.4 -0.4,0.7 -0.6,0.9 -0.2,0.2 -0.4,0.4 -0.7,0.5 -0.2,0.1 -0.4,0.2 -0.5,0.2 l 0,0 c 0.2,0 0.4,0.1 0.6,0.2 0.2,0.1 0.4,0.2 0.6,0.4 0.2,0.2 0.3,0.4 0.4,0.8 0.1,0.3 0.2,0.7 0.2,1.2 0,0.7 0.1,1.3 0.2,1.9 0.1,0.6 0.3,1 0.5,1.2 l -2.3,0 c -0.2,-0.3 -0.2,-0.5 -0.3,-0.9 0,-0.3 0,-0.6 0,-0.9 0,-0.5 0,-1 -0.1,-1.4 -0.1,-0.4 -0.2,-0.7 -0.4,-1 -0.2,-0.3 -0.4,-0.5 -0.7,-0.6 -0.3,-0.1 -0.7,-0.2 -1.2,-0.2 l -3.1,0 0,4.9 -2.1,0 0,-11.9 5.8,0 0,0 z m -0.2,5.5 c 0.7,0 1.2,-0.2 1.5,-0.5 0.3,-0.3 0.5,-0.8 0.5,-1.4 0,-0.4 -0.1,-0.7 -0.2,-0.9 -0.1,-0.2 -0.3,-0.4 -0.5,-0.6 -0.2,-0.1 -0.4,-0.2 -0.7,-0.3 -0.3,0 -0.5,-0.1 -0.8,-0.1 l -3.4,0 0,3.7 3.6,0.1 c 0,-0.1 0,0 0,0 z"
         class="st0"
         id="XMLID_327_" /><path
         style="fill:#ffffff"
         d="m -38.5,307.7 c 0.7,0.3 1.3,0.8 1.8,1.4 0.5,0.6 0.9,1.2 1.1,2 0.3,0.8 0.4,1.6 0.4,2.4 0,0.9 -0.1,1.7 -0.4,2.4 -0.3,0.8 -0.6,1.4 -1.1,2 -0.5,0.6 -1.1,1 -1.8,1.3 -0.7,0.3 -1.5,0.5 -2.4,0.5 -0.9,0 -1.7,-0.2 -2.4,-0.5 -0.7,-0.3 -1.3,-0.8 -1.8,-1.3 -0.5,-0.6 -0.9,-1.2 -1.1,-2 -0.3,-0.8 -0.4,-1.6 -0.4,-2.4 0,-0.8 0.1,-1.6 0.4,-2.4 0.3,-0.8 0.6,-1.4 1.1,-2 0.5,-0.6 1.1,-1 1.8,-1.4 0.7,-0.3 1.5,-0.5 2.4,-0.5 0.9,0 1.6,0.2 2.4,0.5 z m -4.1,1.6 c -0.5,0.3 -0.8,0.6 -1.1,1 -0.3,0.4 -0.5,0.9 -0.6,1.5 -0.1,0.5 -0.2,1.1 -0.2,1.7 0,0.6 0.1,1.1 0.2,1.7 0.1,0.5 0.4,1 0.6,1.5 0.3,0.4 0.7,0.8 1.1,1 0.5,0.3 1,0.4 1.6,0.4 0.6,0 1.2,-0.1 1.6,-0.4 0.4,-0.3 0.8,-0.6 1.1,-1 0.3,-0.4 0.5,-0.9 0.6,-1.5 0.1,-0.5 0.2,-1.1 0.2,-1.7 0,-0.6 -0.1,-1.1 -0.2,-1.7 -0.1,-0.5 -0.4,-1 -0.6,-1.5 -0.3,-0.4 -0.7,-0.8 -1.1,-1 -0.5,-0.3 -1,-0.4 -1.6,-0.4 -0.6,0 -1.1,0.2 -1.6,0.4 z"
         class="st0"
         id="XMLID_324_" /><path
         style="fill:#ffffff"
         d="m -23.2,307.5 0,10.1 6.1,0 0,1.8 -8.2,0 0,-11.9 2.1,0 0,0 z"
         class="st0"
         id="XMLID_322_" /><path
         style="fill:#ffffff"
         d="m 10.2,307.5 c 0.8,0 1.5,0.1 2.1,0.4 0.5,0.2 0.9,0.6 1.2,0.9 0.3,0.4 0.5,0.8 0.6,1.2 0.1,0.4 0.2,0.8 0.2,1.2 0,0.4 -0.1,0.8 -0.2,1.2 -0.1,0.4 -0.3,0.8 -0.6,1.2 -0.3,0.4 -0.7,0.7 -1.2,0.9 -0.5,0.2 -1.2,0.4 -2.1,0.4 l -3.2,0 0,4.6 -2,0 0,-11.9 5.2,-0.1 0,0 z m -0.1,5.7 c 0.2,0 0.5,0 0.7,-0.1 0.2,-0.1 0.5,-0.2 0.7,-0.3 0.2,-0.2 0.4,-0.4 0.5,-0.6 0.1,-0.3 0.2,-0.6 0.2,-0.9 0,-0.4 -0.1,-0.7 -0.2,-1 -0.1,-0.3 -0.3,-0.5 -0.5,-0.6 -0.2,-0.2 -0.4,-0.3 -0.7,-0.3 -0.2,-0.1 -0.5,-0.1 -0.8,-0.1 l -3.1,0 0,3.9 3.2,0 0,0 z"
         class="st0"
         id="XMLID_319_" /><path
         style="fill:#ffffff"
         d="m 28.3,307.5 4.6,11.9 -2.2,0 -1.1,-3.2 -4.8,0 -1.1,3.2 -2.2,0 4.6,-11.9 2.2,0 z m 0.7,7.2 -1.8,-5.1 -0.1,0 -1.8,5.1 3.7,0 z"
         class="st0"
         id="XMLID_316_" /><path
         style="fill:#ffffff"
         d="m 44.2,307.5 5.4,8.8 0,0 0,-8.8 2,0 0,11.9 -2.2,0 -5.4,-8.8 0,0 0,8.8 -2,0 0,-11.9 2.2,0 0,0 z"
         class="st0"
         id="XMLID_314_" /><path
         style="fill:#ffffff"
         d="m 70.8,307.5 0,1.8 -6.5,0 0,3.1 6,0 0,1.7 -6,0 0,3.5 6.6,0 0,1.8 -8.7,0 0,-11.9 8.6,0 0,0 z"
         class="st0"
         id="XMLID_312_" /><path
         style="fill:#ffffff"
         d="m 82.8,307.5 0,10.1 6.1,0 0,1.8 -8.2,0 0,-11.9 2.1,0 0,0 z"
         class="st0"
         id="XMLID_310_" /></g></g><radialGradient
     gradientUnits="userSpaceOnUse"
     gradientTransform="translate(-4.2999954,-5.7799985)"
     r="28.6486"
     cy="297.51001"
     cx="-203.3"
     id="XMLID_3_"><stop
       id="stop4675"
       style="stop-color:#364655"
       offset="0" /><stop
       id="stop4677"
       style="stop-color:#363C49"
       offset="0.5271" /><stop
       id="stop4679"
       style="stop-color:#2D3243"
       offset="1" /></radialGradient><circle
     style="fill:url(#XMLID_3_)"
     r="28.6"
     cy="291.69998"
     cx="-207.60001"
     class="st1"
     id="XMLID_88_" /><radialGradient
     gradientUnits="userSpaceOnUse"
     gradientTransform="matrix(1.0889,0,0,1.2154,-3.4479954,-54.675898)"
     r="6.2291999"
     cy="279.41071"
     cx="-187.3532"
     id="XMLID_4_"><stop
       id="stop4683"
       style="stop-color:#22D7FF"
       offset="0" /><stop
       id="stop4685"
       style="stop-color:#22D7FF;stop-opacity:0"
       offset="0.9803" /></radialGradient><path
     style="opacity:0.95;fill:url(#XMLID_4_);enable-background:new"
     d="m -207.5,277 c 3.6,0 6.6,3.5 6.6,7.8 0,4.3 -3,7.8 -6.6,7.8 -3.6,0 -6.6,-3.5 -6.6,-7.8 0,-4.3 3,-7.8 6.6,-7.8 z"
     class="st2"
     id="XMLID_86_" /><g
     transform="translate(-4.2999954,-3.0999985)"
     id="XMLID_42_"><g
       id="g4689"><g
         id="g4691"><g
           id="g4693"><g
             id="g4695"><defs
               id="defs4697"><circle
                 r="43.400002"
                 cy="286.60001"
                 cx="-203.3"
                 id="SVGID_1_" /></defs><clipPath
               id="SVGID_2_"><use
                 height="100%"
                 width="100%"
                 y="0"
                 x="0"
                 id="use4701"
                 style="overflow:visible"
                 xlink:href="#SVGID_1_" /></clipPath><linearGradient
               gradientTransform="translate(0,-2.68)"
               y2="275.21078"
               x2="-217.90221"
               y1="332.8667"
               x1="-224.9814"
               gradientUnits="userSpaceOnUse"
               id="XMLID_5_"><stop
                 id="stop4704"
                 style="stop-color:#A3580C"
                 offset="0.1084" /><stop
                 id="stop4706"
                 style="stop-color:#C36403"
                 offset="0.2069" /><stop
                 id="stop4708"
                 style="stop-color:#FBD45B"
                 offset="0.7783" /></linearGradient><path
               style="fill:url(#XMLID_5_)"
               clip-path="url(#SVGID_2_)"
               d="m -245.6,269.1 c 0,0 24.2,24.1 27.7,27.6 3.4,3.3 6.8,7.2 14.1,7.4 6.5,0.1 11.5,-4.2 11.5,-4.2 l -30.7,30.5 c 0,0 -35.5,-12.2 -22.6,-61.3 z"
               class="st3"
               id="XMLID_81_" /></g></g></g></g><g
       id="g4711"><g
         id="g4713"><g
           id="g4715"><g
             id="g4717"><defs
               id="defs4719"><circle
                 r="43.400002"
                 cy="286.60001"
                 cx="-203.3"
                 id="SVGID_3_" /></defs><clipPath
               id="SVGID_4_"><use
                 height="100%"
                 width="100%"
                 y="0"
                 x="0"
                 id="use4723"
                 style="overflow:visible"
                 xlink:href="#SVGID_3_" /></clipPath><linearGradient
               gradientTransform="translate(0,-2.68)"
               y2="288.90491"
               x2="-190.5472"
               y1="336.2381"
               x1="-191.3734"
               gradientUnits="userSpaceOnUse"
               id="XMLID_6_"><stop
                 id="stop4726"
                 style="stop-color:#BB5D06"
                 offset="9.852216e-002" /><stop
                 id="stop4728"
                 style="stop-color:#EFBA47"
                 offset="0.6552" /></linearGradient><path
               style="fill:url(#XMLID_6_)"
               clip-path="url(#SVGID_4_)"
               d="m -219.8,327.1 41,-40.7 16.5,16.5 c 0,0 -8,47.3 -57.5,24.2 z"
               class="st4"
               id="XMLID_76_" /></g></g></g></g><g
       id="g4731"><g
         id="g4733"><g
           id="g4735"><g
             id="g4737"><defs
               id="defs4739"><circle
                 r="43.400002"
                 cy="286.60001"
                 cx="-203.3"
                 id="SVGID_5_" /></defs><clipPath
               id="SVGID_6_"><use
                 height="100%"
                 width="100%"
                 y="0"
                 x="0"
                 id="use4743"
                 style="overflow:visible"
                 xlink:href="#SVGID_5_" /></clipPath><linearGradient
               gradientTransform="translate(0,-2.68)"
               y2="289.414"
               x2="-177.6926"
               y1="338.62891"
               x1="-199.6046"
               gradientUnits="userSpaceOnUse"
               id="XMLID_7_"><stop
                 id="stop4746"
                 style="stop-color:#EFBA47;stop-opacity:0"
                 offset="0.6256" /><stop
                 id="stop4748"
                 style="stop-color:#A86113"
                 offset="0.931" /></linearGradient><path
               style="fill:url(#XMLID_7_)"
               clip-path="url(#SVGID_6_)"
               d="m -219.6,327 41,-40.7 16.5,16.5 c 0,0 -8,47.3 -57.5,24.2 z"
               class="st5"
               id="XMLID_71_" /></g></g></g></g><g
       id="g4751"><g
         id="g4753"><g
           id="g4755"><g
             id="g4757"><defs
               id="defs4759"><circle
                 r="43.400002"
                 cy="286.60001"
                 cx="-203.3"
                 id="SVGID_7_" /></defs><clipPath
               id="SVGID_8_"><use
                 height="100%"
                 width="100%"
                 y="0"
                 x="0"
                 id="use4763"
                 style="overflow:visible"
                 xlink:href="#SVGID_7_" /></clipPath><linearGradient
               gradientTransform="translate(0,-2.68)"
               y2="309.96979"
               x2="-168.33211"
               y1="253.21249"
               x1="-198.51041"
               gradientUnits="userSpaceOnUse"
               id="XMLID_8_"><stop
                 id="stop4766"
                 style="stop-color:#ECB03F"
                 offset="0" /><stop
                 id="stop4768"
                 style="stop-color:#F9CF57"
                 offset="0.266" /><stop
                 id="stop4770"
                 style="stop-color:#ECB03F"
                 offset="0.5172" /><stop
                 id="stop4772"
                 style="stop-color:#C66907"
                 offset="0.7882" /><stop
                 id="stop4774"
                 style="stop-color:#A3580C"
                 offset="0.9261" /></linearGradient><path
               style="fill:url(#XMLID_8_)"
               clip-path="url(#SVGID_8_)"
               d="m -161.6,303.6 c 0,0 -24.2,-23.3 -27.6,-26.8 -3.1,-3.3 -6.5,-7.2 -14.4,-7.5 -6.5,-0.2 -11.5,4.2 -11.5,4.2 l 30.7,-30.5 c -0.1,0 35.7,11.5 22.8,60.6 z"
               class="st6"
               id="XMLID_66_" /></g></g></g></g><g
       id="g4777"><g
         id="g4779"><g
           id="g4781"><g
             id="g4783"><defs
               id="defs4785"><circle
                 r="43.400002"
                 cy="286.60001"
                 cx="-203.3"
                 id="SVGID_9_" /></defs><clipPath
               id="SVGID_10_"><use
                 height="100%"
                 width="100%"
                 y="0"
                 x="0"
                 id="use4789"
                 style="overflow:visible"
                 xlink:href="#SVGID_9_" /></clipPath><linearGradient
               gradientTransform="translate(0,-2.68)"
               y2="241.0184"
               x2="-210.38"
               y1="290.24371"
               x1="-224.4951"
               gradientUnits="userSpaceOnUse"
               id="XMLID_9_"><stop
                 id="stop4792"
                 style="stop-color:#A1550B"
                 offset="7.389162e-002" /><stop
                 id="stop4794"
                 style="stop-color:#E6A235"
                 offset="0.5025" /><stop
                 id="stop4796"
                 style="stop-color:#F4C24C"
                 offset="0.8522" /><stop
                 id="stop4798"
                 style="stop-color:#F9CF57"
                 offset="0.9557" /></linearGradient><path
               style="fill:url(#XMLID_9_)"
               clip-path="url(#SVGID_10_)"
               d="m -187.3,246 -40.8,40.5 -16.5,-16.5 c 0,0.1 7.8,-47.1 57.3,-24 z"
               class="st7"
               id="XMLID_51_" /></g></g></g></g><g
       id="g4801"><g
         id="g4803"><g
           id="g4805"><g
             id="g4807"><defs
               id="defs4809"><circle
                 r="43.400002"
                 cy="286.60001"
                 cx="-203.3"
                 id="SVGID_11_" /></defs><clipPath
               id="SVGID_12_"><use
                 height="100%"
                 width="100%"
                 y="0"
                 x="0"
                 id="use4813"
                 style="overflow:visible"
                 xlink:href="#SVGID_11_" /></clipPath><linearGradient
               gradientTransform="translate(0,-2.68)"
               y2="258.1875"
               x2="-203.4436"
               y1="291.6048"
               x1="-151.9854"
               gradientUnits="userSpaceOnUse"
               id="XMLID_10_"><stop
                 id="stop4816"
                 style="stop-color:#EFBA47;stop-opacity:0"
                 offset="0.803" /><stop
                 id="stop4818"
                 style="stop-color:#A86113"
                 offset="0.9704" /></linearGradient><path
               style="fill:url(#XMLID_10_)"
               clip-path="url(#SVGID_12_)"
               d="m -161.6,303.7 c 0,0 -24.2,-23.3 -27.6,-26.8 -3.1,-3.3 -6.5,-7.2 -14.4,-7.5 -6.5,-0.2 -11.5,4.2 -11.5,4.2 l 30.7,-30.5 c -0.1,0 35.7,11.5 22.8,60.6 z"
               class="st8"
               id="XMLID_48_" /></g></g></g></g><g
       id="g4821"><g
         id="g4823"><g
           id="g4825"><g
             id="g4827"><defs
               id="defs4829"><circle
                 r="43.400002"
                 cy="286.60001"
                 cx="-203.3"
                 id="SVGID_13_" /></defs><clipPath
               id="SVGID_14_"><use
                 height="100%"
                 width="100%"
                 y="0"
                 x="0"
                 id="use4833"
                 style="overflow:visible"
                 xlink:href="#SVGID_13_" /></clipPath><linearGradient
               gradientTransform="translate(0,-2.68)"
               y2="319.92349"
               x2="-206.7438"
               y1="280.95261"
               x1="-253.18761"
               gradientUnits="userSpaceOnUse"
               id="XMLID_11_"><stop
                 id="stop4836"
                 style="stop-color:#D2811E;stop-opacity:0"
                 offset="0.6256" /><stop
                 id="stop4838"
                 style="stop-color:#A86113"
                 offset="0.9261" /></linearGradient><path
               style="fill:url(#XMLID_11_)"
               clip-path="url(#SVGID_14_)"
               d="m -245.6,269.2 c 0,0 24.2,24.1 27.7,27.6 3.4,3.3 6.8,7.2 14.1,7.4 6.5,0.1 11.5,-4.2 11.5,-4.2 l -30.7,30.5 c 0,0 -35.5,-12.2 -22.6,-61.3 z"
               class="st9"
               id="XMLID_45_" /></g></g></g></g></g><radialGradient
     gradientUnits="userSpaceOnUse"
     gradientTransform="matrix(1,0,0,1.0907,-4.2999954,-26.651898)"
     r="5.4850998"
     cy="285.07541"
     cx="-203.23869"
     id="XMLID_12_"><stop
       id="stop4842"
       style="stop-color:#69C9CA"
       offset="0.3251" /><stop
       id="stop4844"
       style="stop-color:#0BFBFC;stop-opacity:2.805595e-002"
       offset="0.9261" /><stop
       id="stop4846"
       style="stop-color:#05FEFF;stop-opacity:0"
       offset="1" /></radialGradient><path
     style="opacity:0.8;fill:url(#XMLID_12_);enable-background:new"
     d="m -207.5,278 c 3,0 5.3,2.7 5.3,6.1 0,3.4 -2.4,6.1 -5.3,6.1 -3,0 -5.3,-2.7 -5.3,-6.1 -0.1,-3.3 2.3,-6.1 5.3,-6.1 z"
     class="st10"
     id="XMLID_40_" /><radialGradient
     gradientUnits="userSpaceOnUse"
     gradientTransform="translate(-4.2999954,-5.7799985)"
     r="4.7068"
     cy="289.63089"
     cx="-203.2794"
     id="XMLID_13_"><stop
       id="stop4850"
       style="stop-color:#69C9CA"
       offset="0.6847" /><stop
       id="stop4852"
       style="stop-color:#4AD9DA;stop-opacity:0.6995"
       offset="0.7602" /><stop
       id="stop4854"
       style="stop-color:#05FEFF;stop-opacity:0"
       offset="0.936" /></radialGradient><path
     style="fill:url(#XMLID_13_)"
     d="m -207.6,278.9 c 2.5,0 4.6,2.2 4.6,4.8 0,2.7 -2.1,4.8 -4.6,4.8 -2.5,0 -4.6,-2.2 -4.6,-4.8 0,-2.6 2.1,-4.8 4.6,-4.8 z"
     class="st11"
     id="XMLID_38_" /><path
     style="fill:#ffffff"
     d="m -207.6,280.3 c 1.8,0 3.2,1.5 3.2,3.2 0,1.8 -1.5,3.2 -3.2,3.2 -1.8,0 -3.2,-1.5 -3.2,-3.2 0,-1.8 1.4,-3.2 3.2,-3.2 z"
     class="st0"
     id="XMLID_36_" /><g
     transform="translate(-4.2999954,-3.0999985)"
     id="g4858"><path
       style="fill:#f5ac43"
       id="path4860"
       d="m 112.3,254.5 69.5,0 c 3.9,0 7.3,3.3 7.3,7.3 l 0,16.9 c 0,3.9 -3.3,7.3 -7.3,7.3 l -69.5,0 c -3.9,0 -7.3,-3.3 -7.3,-7.3 l 0,-16.9 c 0.2,-3.9 3.4,-7.3 7.3,-7.3 z"
       class="st12" /><g
       id="g4862"><path
         style="fill:#ffffff"
         id="path4864"
         d="m 128.8,270.2 c 0,2.6 -0.6,4.7 -2.2,5.9 -1.6,1.4 -3.5,2.2 -6.5,2.2 l -4.5,0 0,-15.9 4.9,0 c 2.6,0 4.7,0.6 5.9,2 1.6,1.5 2.4,3.3 2.4,5.8 z m -3.5,0 c 0,-3.3 -1.6,-5.1 -4.5,-5.1 l -1.8,0 0,10.4 1.4,0 c 3.3,0 4.9,-1.7 4.9,-5.3 z"
         class="st0" /><path
         style="fill:#ffffff"
         id="path4866"
         d="m 141.4,278.3 -9.2,0 0,-15.9 9.2,0 0,2.7 -5.9,0 0,3.3 5.3,0 0,2.7 -5.3,0 0,4.1 5.9,0 0,3.1 z"
         class="st0" /><path
         style="fill:#ffffff"
         id="path4868"
         d="m 151.4,278.3 -3.7,-12.6 -0.2,0 c 0.2,2.6 0.2,4.3 0.2,5.1 l 0,7.3 -3.1,0 0,-15.9 4.7,0 3.7,12.2 0,0 3.9,-12.2 4.7,0 0,15.9 -3.1,0 0,-7.5 c 0,-0.4 0,-0.6 0,-1.2 0,-0.6 0,-1.8 0.2,-3.7 l -0.2,0 -4.1,12.6 c -0.1,0 -3,0 -3,0 z"
         class="st0" /><path
         style="fill:#ffffff"
         id="path4870"
         d="m 180,270.2 c 0,2.6 -0.6,4.7 -2,5.9 -1.4,1.4 -3.3,2 -5.7,2 -2.4,0 -4.3,-0.6 -5.7,-2 -1.4,-1.4 -2,-3.3 -2,-6.1 0,-2.6 0.6,-4.7 2,-5.9 1.4,-1.4 3.3,-2 5.7,-2 2.4,0 4.3,0.6 5.7,2 1.4,1.6 2,3.4 2,6.1 z m -11.5,0 c 0,1.8 0.4,3.1 1,3.9 0.6,0.8 1.8,1.4 3.1,1.4 2.7,0 4.1,-1.8 4.1,-5.3 0,-3.5 -1.4,-5.3 -3.9,-5.3 -1.4,0 -2.4,0.6 -3.1,1.4 -1,1 -1.2,2.4 -1.2,3.9 z"
         class="st0" /></g></g></svg>