<?xml version="1.0" encoding="UTF-8" standalone="no"?>
<svg
   xmlns:dc="http://purl.org/dc/elements/1.1/"
   xmlns:cc="http://creativecommons.org/ns#"
   xmlns:rdf="http://www.w3.org/1999/02/22-rdf-syntax-ns#"
   xmlns:svg="http://www.w3.org/2000/svg"
   xmlns="http://www.w3.org/2000/svg"
   xmlns:xlink="http://www.w3.org/1999/xlink"
   xml:space="preserve"
   style="enable-background:new -1 218.6 597 165.4;"
   viewBox="-1 218.6 597 165.4"
   y="0px"
   x="0px"
   id="Layer_1"
   version="1.1"><metadata
     id="metadata251"><rdf:RDF><cc:Work
         rdf:about=""><dc:format>image/svg+xml</dc:format><dc:type
           rdf:resource="http://purl.org/dc/dcmitype/StillImage" /><dc:title></dc:title></cc:Work></rdf:RDF></metadata><defs
     id="defs249" /><style
     id="style3"
     type="text/css">
	.st0{fill:#FFFFFF;}
	.st1{fill:url(#XMLID_3_);}
	.st2{opacity:0.95;fill:url(#XMLID_4_);enable-background:new    ;}
	.st3{clip-path:url(#SVGID_2_);fill:url(#XMLID_5_);}
	.st4{clip-path:url(#SVGID_4_);fill:url(#XMLID_6_);}
	.st5{clip-path:url(#SVGID_6_);fill:url(#XMLID_7_);}
	.st6{clip-path:url(#SVGID_8_);fill:url(#XMLID_8_);}
	.st7{clip-path:url(#SVGID_10_);fill:url(#XMLID_9_);}
	.st8{clip-path:url(#SVGID_12_);fill:url(#XMLID_10_);}
	.st9{clip-path:url(#SVGID_14_);fill:url(#XMLID_11_);}
	.st10{opacity:0.8;fill:url(#XMLID_12_);enable-background:new    ;}
	.st11{fill:url(#XMLID_13_);}
	.st12{fill:url(#SVGID_15_);}
	.st13{fill:url(#SVGID_16_);}
	.st14{fill:url(#SVGID_17_);}
</style><g
     id="g5"><g
       id="g7"><g
         id="XMLID_52_"><path
           d="M201.4,251.4h28.3c4,0,7.3,0.5,10,1.7c2.8,1.2,5,2.7,6.7,4.5c1.7,1.8,3,4,3.8,6.5     c0.8,2.3,1.2,4.8,1.2,7.5c0,2.5-0.3,5-1.2,7.5c-0.8,2.5-2,4.7-3.8,6.5c-1.7,1.8-4,3.3-6.7,4.5c-2.8,1.2-6.2,1.7-10,1.7h-14.5     v22.5h-13.8V251.4z M215.2,280.9h10.7c1.5,0,3.2-0.2,4.5-0.3c1.5-0.2,2.8-0.7,3.8-1.3c1.2-0.7,2-1.7,2.7-2.8c0.7-1.2,1-2.8,1-4.8     s-0.3-3.7-1-4.8c-0.7-1.2-1.5-2.2-2.7-2.8c-1.2-0.7-2.3-1.2-3.8-1.3s-3-0.3-4.5-0.3h-10.7V280.9z"
           class="st0"
           id="XMLID_53_" /><path
           d="M322.2,290.4c0,8.5-2.3,14.8-7.2,19s-11.3,6.2-19.7,6.2c-8.5,0-15.2-2-19.7-6.2     c-4.7-4.2-7-10.5-7-19v-39h13.8v39c0,1.7,0.2,3.3,0.5,5c0.3,1.7,0.8,3.2,1.8,4.3c1,1.3,2.2,2.3,3.8,3c1.7,0.8,3.8,1.2,6.7,1.2     c5,0,8.3-1.2,10.2-3.3s2.8-5.7,2.8-10.3v-38.8h13.8C322.2,251.4,322.2,290.4,322.2,290.4z"
           class="st0"
           id="XMLID_56_" /><path
           d="M344.7,251.4h19.5l14.7,43.2h0.2l13.8-43.2h19.5v62.8h-13v-44.7h-0.2L383.8,314h-10.7     l-15.3-44h-0.3v44h-13L344.7,251.4L344.7,251.4z"
           class="st0"
           id="XMLID_58_" /><path
           d="M435,251.4h28.3c4,0,7.3,0.5,10,1.7c2.8,1.2,5,2.7,6.7,4.5s3,4,3.8,6.5     c0.8,2.3,1.2,4.8,1.2,7.5c0,2.5-0.3,5-1.2,7.5c-0.8,2.5-2,4.7-3.8,6.5c-1.7,1.8-4,3.3-6.7,4.5c-2.7,1.2-6.2,1.7-10,1.7h-14.5     v22.5H435C435,314.2,435,251.4,435,251.4z M448.8,280.9h10.7c1.7,0,3.2-0.2,4.5-0.3c1.5-0.2,2.8-0.7,3.8-1.3     c1.2-0.7,2-1.7,2.7-2.8s1-2.8,1-4.8s-0.3-3.7-1-4.8s-1.5-2.2-2.7-2.8c-1.2-0.7-2.3-1.2-3.8-1.3c-1.5-0.2-3-0.3-4.5-0.3h-10.7     C448.8,262.2,448.8,280.9,448.8,280.9z"
           class="st0"
           id="XMLID_60_" /><path
           d="M503.3,251.4h13.8v62.8h-13.8V251.4z"
           class="st0"
           id="XMLID_64_" /><path
           d="M579.8,272.4c-0.2-1.5-0.8-3-1.7-4.3c-0.8-1.3-1.8-2.5-3-3.5c-1.2-1-2.7-1.8-4.2-2.3     c-1.5-0.5-3.2-0.8-4.8-0.8c-3.2,0-5.7,0.7-8,1.8c-2.2,1.2-4,2.8-5.3,4.8s-2.3,4.3-3,6.8c-0.7,2.5-1,5.2-1,8c0,2.7,0.3,5.2,1,7.7     c0.7,2.5,1.7,4.7,3,6.7s3.2,3.7,5.3,4.8c2.2,1.2,4.8,1.8,8,1.8c4.2,0,7.5-1.3,9.8-3.8s3.8-6,4.3-10.2h13.3     c-0.3,4-1.3,7.5-2.7,10.7c-1.5,3.2-3.3,5.8-5.8,8.2c-2.3,2.2-5.2,4-8.5,5.2c-3.2,1.2-6.8,1.8-10.7,1.8c-4.8,0-9.2-0.8-13-2.5     c-3.8-1.7-7-4-9.7-6.8c-2.7-3-4.7-6.3-6-10.3c-1.3-4-2.2-8.2-2.2-12.8s0.7-9,2.2-13c1.3-4,3.5-7.5,6-10.5c2.5-3,5.8-5.3,9.7-7     c3.8-1.7,8.2-2.5,13-2.5c3.5,0,6.7,0.5,9.8,1.5c3,1,5.8,2.5,8.3,4.3c2.5,1.8,4.5,4.3,6,7c1.5,2.8,2.5,6,3,9.7h-13.3     C579.8,272.7,579.8,272.4,579.8,272.4z"
           class="st0"
           id="XMLID_68_" /></g><g
         id="XMLID_1_"><g
           id="XMLID_309_"><path
             d="M214.2,345.2c-0.3-0.5-0.7-0.8-1-1.3c-0.3-0.3-0.8-0.7-1.5-0.8c-0.5-0.2-1.2-0.3-1.8-0.3      c-1,0-2,0.2-2.7,0.7c-0.8,0.5-1.3,1-1.8,1.7c-0.5,0.7-0.8,1.5-1,2.5c-0.2,0.8-0.3,1.8-0.3,2.8s0.2,1.8,0.3,2.8      c0.2,0.8,0.7,1.7,1,2.5c0.5,0.7,1.2,1.3,1.8,1.7s1.7,0.7,2.7,0.7c0.8,0,1.5-0.2,2-0.3c0.7-0.3,1.2-0.7,1.5-1.2      c0.5-0.5,0.8-1,1-1.7s0.3-1.3,0.5-2h3.3c0,1.2-0.3,2.3-0.8,3.3c-0.5,1-1,1.8-1.8,2.5c-0.7,0.7-1.7,1.3-2.7,1.7      c-1,0.3-2.2,0.7-3.3,0.7c-1.5,0-2.8-0.3-4-0.8c-1.2-0.5-2.2-1.3-3-2.2c-0.8-1-1.5-2-1.8-3.3c-0.5-1.3-0.7-2.7-0.7-4      c0-1.3,0.2-2.7,0.7-4c0.5-1.3,1-2.3,1.8-3.3s1.8-1.7,3-2.3c1.2-0.5,2.5-0.8,4-0.8c1.2,0,2.2,0.2,3.2,0.5c1,0.3,1.8,0.8,2.7,1.3      c0.8,0.7,1.3,1.3,1.8,2.2c0.5,0.8,0.8,1.8,0.8,2.8h-3.5C214.7,346.2,214.5,345.7,214.2,345.2z"
             class="st0"
             id="XMLID_337_" /><path
             d="M247.4,340.7c1.2,0.5,2.2,1.3,3,2.3s1.5,2,1.8,3.3c0.5,1.3,0.7,2.7,0.7,4      c0,1.5-0.2,2.8-0.7,4c-0.5,1.3-1,2.3-1.8,3.3s-1.8,1.7-3,2.2c-1.2,0.5-2.5,0.8-4,0.8c-1.5,0-2.8-0.3-4-0.8      c-1.2-0.5-2.2-1.3-3-2.2c-0.8-1-1.5-2-1.8-3.3c-0.5-1.3-0.7-2.7-0.7-4c0-1.3,0.2-2.7,0.7-4s1-2.3,1.8-3.3c0.8-1,1.8-1.7,3-2.3      c1.2-0.5,2.5-0.8,4-0.8C244.9,339.9,246.2,340.2,247.4,340.7z M240.7,343.4c-0.8,0.5-1.3,1-1.8,1.7c-0.5,0.7-0.8,1.5-1,2.5      c-0.2,0.8-0.3,1.8-0.3,2.8s0.2,1.8,0.3,2.8c0.2,0.8,0.7,1.7,1,2.5c0.5,0.7,1.2,1.3,1.8,1.7c0.8,0.5,1.7,0.7,2.7,0.7      s2-0.2,2.7-0.7c0.8-0.5,1.3-1,1.8-1.7s0.8-1.5,1-2.5c0.2-0.8,0.3-1.8,0.3-2.8s-0.2-1.8-0.3-2.8c-0.2-0.8-0.7-1.7-1-2.5      c-0.5-0.7-1.2-1.3-1.8-1.7c-0.8-0.5-1.7-0.7-2.7-0.7S241.4,343,240.7,343.4z"
             class="st0"
             id="XMLID_334_" /><path
             d="M273,340.4l9,14.7l0,0v-14.7h3.3v19.8h-3.7l-9-14.7h-0.2v14.7h-3.3v-19.8H273z"
             class="st0"
             id="XMLID_332_" /><path
             d="M317.2,340.4v3h-6.3v16.8h-3.5v-16.8H301v-3H317.2z"
             class="st0"
             id="XMLID_330_" /><path
             d="M342.3,340.4c2.2,0,3.8,0.5,5,1.5s1.7,2.3,1.7,4c0,1-0.2,1.7-0.5,2.3      c-0.3,0.7-0.7,1.2-1,1.5c-0.3,0.3-0.7,0.7-1.2,0.8c-0.3,0.2-0.7,0.3-0.8,0.3l0,0c0.3,0,0.7,0.2,1,0.3c0.3,0.2,0.7,0.3,1,0.7      c0.3,0.3,0.5,0.7,0.7,1.3c0.2,0.5,0.3,1.2,0.3,2c0,1.2,0.2,2.2,0.3,3.2c0.2,1,0.5,1.7,0.8,2h-3.8c-0.3-0.5-0.3-0.8-0.5-1.5      c0-0.5,0-1,0-1.5c0-0.8,0-1.7-0.2-2.3c-0.2-0.7-0.3-1.2-0.7-1.7c-0.3-0.5-0.7-0.8-1.2-1c-0.5-0.2-1.2-0.3-2-0.3h-5.2v8.2h-3.5      v-19.8H342.3L342.3,340.4z M342,349.5c1.2,0,2-0.3,2.5-0.8c0.5-0.5,0.8-1.3,0.8-2.3c0-0.7-0.2-1.2-0.3-1.5      c-0.2-0.3-0.5-0.7-0.8-1c-0.3-0.2-0.7-0.3-1.2-0.5c-0.5,0-0.8-0.2-1.3-0.2H336v6.2h6C342,349.4,342,349.5,342,349.5z"
             class="st0"
             id="XMLID_327_" /><path
             d="M378.3,340.7c1.2,0.5,2.2,1.3,3,2.3s1.5,2,1.8,3.3c0.5,1.3,0.7,2.7,0.7,4      c0,1.5-0.2,2.8-0.7,4c-0.5,1.3-1,2.3-1.8,3.3s-1.8,1.7-3,2.2c-1.2,0.5-2.5,0.8-4,0.8c-1.5,0-2.8-0.3-4-0.8      c-1.2-0.5-2.2-1.3-3-2.2c-0.8-1-1.5-2-1.8-3.3c-0.5-1.3-0.7-2.7-0.7-4c0-1.3,0.2-2.7,0.7-4s1-2.3,1.8-3.3c0.8-1,1.8-1.7,3-2.3      c1.2-0.5,2.5-0.8,4-0.8C375.8,339.9,377,340.2,378.3,340.7z M371.5,343.4c-0.8,0.5-1.3,1-1.8,1.7c-0.5,0.7-0.8,1.5-1,2.5      c-0.2,0.8-0.3,1.8-0.3,2.8s0.2,1.8,0.3,2.8c0.2,0.8,0.7,1.7,1,2.5c0.5,0.7,1.2,1.3,1.8,1.7c0.8,0.5,1.7,0.7,2.7,0.7      s2-0.2,2.7-0.7c0.7-0.5,1.3-1,1.8-1.7c0.5-0.7,0.8-1.5,1-2.5c0.2-0.8,0.3-1.8,0.3-2.8s-0.2-1.8-0.3-2.8c-0.2-0.8-0.7-1.7-1-2.5      c-0.5-0.7-1.2-1.3-1.8-1.7c-0.8-0.5-1.7-0.7-2.7-0.7S372.3,343,371.5,343.4z"
             class="st0"
             id="XMLID_324_" /><path
             d="M403.8,340.4v16.8H414v3h-13.7v-19.8H403.8L403.8,340.4z"
             class="st0"
             id="XMLID_322_" /><path
             d="M459.5,340.4c1.3,0,2.5,0.2,3.5,0.7c0.8,0.3,1.5,1,2,1.5c0.5,0.7,0.8,1.3,1,2      c0.2,0.7,0.3,1.3,0.3,2c0,0.7-0.2,1.3-0.3,2c-0.2,0.7-0.5,1.3-1,2c-0.5,0.7-1.2,1.2-2,1.5c-0.8,0.3-2,0.7-3.5,0.7h-5.3v7.7h-3.3      v-19.8L459.5,340.4L459.5,340.4z M459.3,349.9c0.3,0,0.8,0,1.2-0.2c0.3-0.2,0.8-0.3,1.2-0.5c0.3-0.3,0.7-0.7,0.8-1      c0.2-0.5,0.3-1,0.3-1.5c0-0.7-0.2-1.2-0.3-1.7c-0.2-0.5-0.5-0.8-0.8-1c-0.3-0.3-0.7-0.5-1.2-0.5c-0.3-0.2-0.8-0.2-1.3-0.2H454      v6.5H459.3L459.3,349.9z"
             class="st0"
             id="XMLID_319_" /><path
             d="M489.6,340.4l7.7,19.8h-3.7l-1.8-5.3h-8l-1.8,5.3h-3.7l7.7-19.8H489.6z M490.8,352.4      l-3-8.5h-0.2l-3,8.5H490.8z"
             class="st0"
             id="XMLID_316_" /><path
             d="M516.1,340.4l9,14.7l0,0v-14.7h3.3v19.8h-3.7l-9-14.7l0,0v14.7h-3.3v-19.8H516.1      L516.1,340.4z"
             class="st0"
             id="XMLID_314_" /><path
             d="M560.5,340.4v3h-10.8v5.2h10v2.8h-10v5.8h11v3h-14.5v-19.8H560.5L560.5,340.4z"
             class="st0"
             id="XMLID_312_" /><path
             d="M580.5,340.4v16.8h10.2v3H577v-19.8H580.5L580.5,340.4z"
             class="st0"
             id="XMLID_310_" /></g></g></g><g
       id="g30"><radialGradient
         gradientUnits="userSpaceOnUse"
         gradientTransform="matrix(1 0 0 1 0 -460.95)"
         r="43.6679"
         cy="787.654"
         cx="101.8859"
         id="XMLID_3_"><stop
           id="stop33"
           style="stop-color:#364655"
           offset="0" /><stop
           id="stop35"
           style="stop-color:#363C49"
           offset="0.5271" /><stop
           id="stop37"
           style="stop-color:#2D3243"
           offset="1" /></radialGradient><circle
         r="43.6"
         cy="326.7"
         cx="101.9"
         class="st1"
         id="XMLID_88_" /><radialGradient
         gradientUnits="userSpaceOnUse"
         gradientTransform="matrix(1.0889 0 0 1.2154 -6.26 -609.2617)"
         r="9.4949"
         cy="761.548"
         cx="99.5169"
         id="XMLID_4_"><stop
           id="stop41"
           style="stop-color:#22D7FF"
           offset="0" /><stop
           id="stop43"
           style="stop-color:#22D7FF;stop-opacity:0"
           offset="0.9803" /></radialGradient><path
         d="M102,304.3c5.5,0,10.1,5.3,10.1,11.9c0,6.6-4.6,11.9-10.1,11.9S92,322.7,92,316.2    C92,309.6,96.6,304.3,102,304.3z"
         class="st2"
         id="XMLID_86_" /><g
         id="XMLID_42_"><g
           id="g47"><g
             id="g49"><g
               id="g51"><g
                 id="g53"><defs
                   id="defs55"><circle
                     r="66.2"
                     cy="314.2"
                     cx="101.9"
                     id="SVGID_1_" /></defs><clipPath
                   id="SVGID_2_"><use
                     id="use59"
                     style="overflow:visible;"
                     xlink:href="#SVGID_1_" /></clipPath><linearGradient
                   gradientTransform="matrix(1 0 0 1 0 -460.95)"
                   y2="753.6643"
                   x2="79.6284"
                   y1="841.5467"
                   x1="68.8379"
                   gradientUnits="userSpaceOnUse"
                   id="XMLID_5_"><stop
                     id="stop62"
                     style="stop-color:#A3580C"
                     offset="0.1084" /><stop
                     id="stop64"
                     style="stop-color:#C36403"
                     offset="0.2069" /><stop
                     id="stop66"
                     style="stop-color:#FBD45B"
                     offset="0.7783" /></linearGradient><path
                   clip-path="url(#SVGID_2_)"
                   d="M37.4,287.5c0,0,36.9,36.7,42.2,42.1c5.2,5,10.4,11,21.5,11.3c9.9,0.2,17.5-6.4,17.5-6.4         L71.9,381C71.9,381,17.7,362.4,37.4,287.5z"
                   class="st3"
                   id="XMLID_81_" /></g></g></g></g><g
           id="g69"><g
             id="g71"><g
               id="g73"><g
                 id="g75"><defs
                   id="defs77"><circle
                     r="66.2"
                     cy="314.2"
                     cx="101.9"
                     id="SVGID_3_" /></defs><clipPath
                   id="SVGID_4_"><use
                     id="use81"
                     style="overflow:visible;"
                     xlink:href="#SVGID_3_" /></clipPath><linearGradient
                   gradientTransform="matrix(1 0 0 1 0 -460.95)"
                   y2="774.5377"
                   x2="121.3244"
                   y1="846.6855"
                   x1="120.0651"
                   gradientUnits="userSpaceOnUse"
                   id="XMLID_6_"><stop
                     id="stop84"
                     style="stop-color:#BB5D06"
                     offset="9.852216e-002" /><stop
                     id="stop86"
                     style="stop-color:#EFBA47"
                     offset="0.6552" /></linearGradient><path
                   clip-path="url(#SVGID_4_)"
                   d="M76.7,375.9l62.5-62l25.2,25.2C164.4,339.1,152.2,411.1,76.7,375.9z"
                   class="st4"
                   id="XMLID_76_" /></g></g></g></g><g
           id="g89"><g
             id="g91"><g
               id="g93"><g
                 id="g95"><defs
                   id="defs97"><circle
                     r="66.2"
                     cy="314.2"
                     cx="101.9"
                     id="SVGID_5_" /></defs><clipPath
                   id="SVGID_6_"><use
                     id="use101"
                     style="overflow:visible;"
                     xlink:href="#SVGID_5_" /></clipPath><linearGradient
                   gradientTransform="matrix(1 0 0 1 0 -460.95)"
                   y2="775.3136"
                   x2="140.9181"
                   y1="850.3298"
                   x1="107.5185"
                   gradientUnits="userSpaceOnUse"
                   id="XMLID_7_"><stop
                     id="stop104"
                     style="stop-color:#EFBA47;stop-opacity:0"
                     offset="0.6256" /><stop
                     id="stop106"
                     style="stop-color:#A86113"
                     offset="0.931" /></linearGradient><path
                   clip-path="url(#SVGID_6_)"
                   d="M77,375.8l62.5-62l25.2,25.2C164.7,338.9,152.5,411,77,375.8z"
                   class="st5"
                   id="XMLID_71_" /></g></g></g></g><g
           id="g109"><g
             id="g111"><g
               id="g113"><g
                 id="g115"><defs
                   id="defs117"><circle
                     r="66.2"
                     cy="314.2"
                     cx="101.9"
                     id="SVGID_7_" /></defs><clipPath
                   id="SVGID_8_"><use
                     id="use121"
                     style="overflow:visible;"
                     xlink:href="#SVGID_7_" /></clipPath><linearGradient
                   gradientTransform="matrix(1 0 0 1 0 -460.95)"
                   y2="806.6458"
                   x2="155.1859"
                   y1="720.1333"
                   x1="109.1864"
                   gradientUnits="userSpaceOnUse"
                   id="XMLID_8_"><stop
                     id="stop124"
                     style="stop-color:#ECB03F"
                     offset="0" /><stop
                     id="stop126"
                     style="stop-color:#F9CF57"
                     offset="0.266" /><stop
                     id="stop128"
                     style="stop-color:#ECB03F"
                     offset="0.5172" /><stop
                     id="stop130"
                     style="stop-color:#C66907"
                     offset="0.7882" /><stop
                     id="stop132"
                     style="stop-color:#A3580C"
                     offset="0.9261" /></linearGradient><path
                   clip-path="url(#SVGID_8_)"
                   d="M165.4,340.1c0,0-36.9-35.5-42.1-40.9c-4.7-5-9.9-11-21.9-11.4         c-9.9-0.3-17.5,6.4-17.5,6.4l46.8-46.5C130.5,247.7,185.1,265.3,165.4,340.1z"
                   class="st6"
                   id="XMLID_66_" /></g></g></g></g><g
           id="g135"><g
             id="g137"><g
               id="g139"><g
                 id="g141"><defs
                   id="defs143"><circle
                     r="66.2"
                     cy="314.2"
                     cx="101.9"
                     id="SVGID_9_" /></defs><clipPath
                   id="SVGID_10_"><use
                     id="use147"
                     style="overflow:visible;"
                     xlink:href="#SVGID_9_" /></clipPath><linearGradient
                   gradientTransform="matrix(1 0 0 1 0 -460.95)"
                   y2="701.5462"
                   x2="91.0942"
                   y1="776.5782"
                   x1="69.5791"
                   gradientUnits="userSpaceOnUse"
                   id="XMLID_9_"><stop
                     id="stop150"
                     style="stop-color:#A1550B"
                     offset="7.389162e-002" /><stop
                     id="stop152"
                     style="stop-color:#E6A235"
                     offset="0.5025" /><stop
                     id="stop154"
                     style="stop-color:#F4C24C"
                     offset="0.8522" /><stop
                     id="stop156"
                     style="stop-color:#F9CF57"
                     offset="0.9557" /></linearGradient><path
                   clip-path="url(#SVGID_10_)"
                   d="M126.3,252.3l-62.2,61.7l-25.2-25.2C38.9,289.1,50.8,217.1,126.3,252.3z"
                   class="st7"
                   id="XMLID_51_" /></g></g></g></g><g
           id="g159"><g
             id="g161"><g
               id="g163"><g
                 id="g165"><defs
                   id="defs167"><circle
                     r="66.2"
                     cy="314.2"
                     cx="101.9"
                     id="SVGID_11_" /></defs><clipPath
                   id="SVGID_12_"><use
                     id="use171"
                     style="overflow:visible;"
                     xlink:href="#SVGID_11_" /></clipPath><linearGradient
                   gradientTransform="matrix(1 0 0 1 0 -460.95)"
                   y2="727.7164"
                   x2="101.667"
                   y1="778.6529"
                   x1="180.1025"
                   gradientUnits="userSpaceOnUse"
                   id="XMLID_10_"><stop
                     id="stop174"
                     style="stop-color:#EFBA47;stop-opacity:0"
                     offset="0.803" /><stop
                     id="stop176"
                     style="stop-color:#A86113"
                     offset="0.9704" /></linearGradient><path
                   clip-path="url(#SVGID_12_)"
                   d="M165.4,340.3c0,0-36.9-35.5-42.1-40.9c-4.7-5-9.9-11-21.9-11.4         c-9.9-0.3-17.5,6.4-17.5,6.4l46.8-46.5C130.5,247.9,185.1,265.4,165.4,340.3z"
                   class="st8"
                   id="XMLID_48_" /></g></g></g></g><g
           id="g179"><g
             id="g181"><g
               id="g183"><g
                 id="g185"><defs
                   id="defs187"><circle
                     r="66.2"
                     cy="314.2"
                     cx="101.9"
                     id="SVGID_13_" /></defs><clipPath
                   id="SVGID_14_"><use
                     id="use191"
                     style="overflow:visible;"
                     xlink:href="#SVGID_13_" /></clipPath><linearGradient
                   gradientTransform="matrix(1 0 0 1 0 -460.95)"
                   y2="821.8179"
                   x2="96.6366"
                   y1="762.4163"
                   x1="25.8443"
                   gradientUnits="userSpaceOnUse"
                   id="XMLID_11_"><stop
                     id="stop194"
                     style="stop-color:#D2811E;stop-opacity:0"
                     offset="0.6256" /><stop
                     id="stop196"
                     style="stop-color:#A86113"
                     offset="0.9261" /></linearGradient><path
                   clip-path="url(#SVGID_14_)"
                   d="M37.4,287.7c0,0,36.9,36.7,42.2,42.1c5.2,5,10.4,11,21.5,11.3c9.9,0.2,17.5-6.4,17.5-6.4         l-46.8,46.5C71.9,381.1,17.7,362.5,37.4,287.7z"
                   class="st9"
                   id="XMLID_45_" /></g></g></g></g></g><radialGradient
         gradientUnits="userSpaceOnUse"
         gradientTransform="matrix(1 0 0 1.0907 0 -523.6837)"
         r="8.3607"
         cy="769.2597"
         cx="101.9793"
         id="XMLID_12_"><stop
           id="stop200"
           style="stop-color:#69C9CA"
           offset="0.3251" /><stop
           id="stop202"
           style="stop-color:#0BFBFC;stop-opacity:2.805595e-002"
           offset="0.9261" /><stop
           id="stop204"
           style="stop-color:#05FEFF;stop-opacity:0"
           offset="1" /></radialGradient><path
         d="M102,305.8c4.6,0,8.1,4.1,8.1,9.3c0,5.2-3.7,9.3-8.1,9.3c-4.6,0-8.1-4.1-8.1-9.3    C93.8,310.1,97.5,305.8,102,305.8z"
         class="st10"
         id="XMLID_40_" /><radialGradient
         gradientUnits="userSpaceOnUse"
         gradientTransform="matrix(1 0 0 1 0 -460.95)"
         r="7.1744"
         cy="775.6442"
         cx="101.9173"
         id="XMLID_13_"><stop
           id="stop208"
           style="stop-color:#69C9CA"
           offset="0.6847" /><stop
           id="stop210"
           style="stop-color:#4AD9DA;stop-opacity:0.6995"
           offset="0.7602" /><stop
           id="stop212"
           style="stop-color:#05FEFF;stop-opacity:0"
           offset="0.936" /></radialGradient><path
         d="M101.9,307.2c3.8,0,7,3.4,7,7.3c0,4.1-3.2,7.3-7,7.3s-7-3.4-7-7.3S98.1,307.2,101.9,307.2z"
         class="st11"
         id="XMLID_38_" /><path
         d="M101.9,309.3c2.7,0,4.9,2.3,4.9,4.9c0,2.7-2.3,4.9-4.9,4.9c-2.7,0-4.9-2.3-4.9-4.9    C97,311.5,99.1,309.3,101.9,309.3z"
         class="st0"
         id="XMLID_36_" /></g><g
       id="g216"><linearGradient
         gradientTransform="matrix(1 0 0 -1 0 605.2)"
         y2="322.9432"
         x2="84.8103"
         y1="382.2101"
         x1="76.481"
         gradientUnits="userSpaceOnUse"
         id="SVGID_15_"><stop
           id="stop219"
           style="stop-color:#E83710"
           offset="0" /><stop
           id="stop221"
           style="stop-color:#A91E31"
           offset="0.5911" /><stop
           id="stop223"
           style="stop-color:#A41C31"
           offset="0.654" /><stop
           id="stop225"
           style="stop-color:#961830"
           offset="0.7278" /><stop
           id="stop227"
           style="stop-color:#7E102E"
           offset="0.8066" /><stop
           id="stop229"
           style="stop-color:#61072C"
           offset="0.8818" /></linearGradient><path
         id="path231"
         d="M160.2,271.7C139.6,184.4,34.9,234.8,21.9,243C12.2,249.1,4,254.5,4,254.5s41.1-10.3,39.1,17.5L160.2,271.7    L160.2,271.7z"
         class="st12" /><linearGradient
         gradientTransform="matrix(1 0 0 -1 0 605.2)"
         y2="312.0645"
         x2="101.1225"
         y1="339.7903"
         x1="101.1225"
         gradientUnits="userSpaceOnUse"
         id="SVGID_16_"><stop
           id="stop234"
           style="stop-color:#FFFFFF"
           offset="0" /><stop
           id="stop236"
           style="stop-color:#DBDBDB"
           offset="1" /></linearGradient><path
         id="path238"
         d="M157.7,292.5c0,0-29.7-4-56.7-4s-55.1,4-55.1,4c-8,1-8.4,1.8-8.5-8.5l-0.7-6.9c0-4.7,3.8-8.5,8.5-8.5    c0,0,21.5-3.3,52-3.3s59.8,3.3,59.8,3.3c4.7,0,8.5,3.8,8.5,8.5l-0.3,11.5C165.2,293.3,165.3,293.7,157.7,292.5z"
         class="st13" /><linearGradient
         gradientTransform="matrix(1 0 0 -1 0 605.2)"
         y2="355.0685"
         x2="24.1643"
         y1="355.0685"
         x1="0.7643"
         gradientUnits="userSpaceOnUse"
         id="SVGID_17_"><stop
           id="stop241"
           style="stop-color:#FFFFFF"
           offset="0" /><stop
           id="stop243"
           style="stop-color:#DBDBDB"
           offset="1" /></linearGradient><circle
         id="circle245"
         r="11.7"
         cy="250.1"
         cx="12.4"
         class="st14" /></g></g></svg>